<svg xmlns="http://www.w3.org/2000/svg" xmlns:xlink="http://www.w3.org/1999/xlink" width="1920" zoomAndPan="magnify" viewBox="0 0 1440 809.999993" height="1080" preserveAspectRatio="xMidYMid meet" version="1.0"><defs><clipPath id="7b300ee47a"><path d="M 175.667969 0 L 494.417969 0 L 494.417969 810 L 175.667969 810 Z M 175.667969 0 " clip-rule="nonzero"/></clipPath></defs><rect x="-144" width="1728" fill="#ffffff" y="-80.999999" height="971.999992" fill-opacity="1"/><rect x="-144" width="1728" fill="#fcffff" y="-80.999999" height="971.999992" fill-opacity="1"/><g clip-path="url(#7b300ee47a)"><path stroke-linecap="butt" transform="matrix(0.684013, 0, 0, 0.684325, 175.668617, -150.215423)" fill="none" stroke-linejoin="miter" d="M 289.99837 13.9973 C 102.233506 321.867914 51.373265 634.099576 136.783749 789.042376 C 222.194233 943.985176 246.350849 1098.579777 209.253596 1252.837596 C 172.156344 1407.089707 126.515759 1561.30186 72.32042 1715.451224 C 18.125081 1869.612003 6.406552 2001.767755 47.998192 2002.00179 " stroke="#eaa900" stroke-width="45" stroke-opacity="0.54" stroke-miterlimit="4"/><path stroke-linecap="butt" transform="matrix(0.684013, 0, 0, 0.684325, 175.668617, -150.215423)" fill="none" stroke-linejoin="miter" d="M 289.99837 13.9973 C 102.233506 321.867914 51.373265 634.099576 136.783749 789.042376 C 222.194233 943.985176 246.350849 1098.579777 209.253596 1252.837596 C 172.156344 1407.089707 126.515759 1561.30186 72.32042 1715.451224 C 18.125081 1869.612003 6.406552 2001.767755 47.998192 2002.00179 " stroke="#f5cd65" stroke-width="45" stroke-opacity="1" stroke-miterlimit="4"/><path stroke-linecap="butt" transform="matrix(0.684013, 0, 0, 0.684325, 175.668617, -150.215423)" fill="none" stroke-linejoin="miter" d="M 334.354028 14.43683 C 146.589165 322.307443 95.728923 634.539105 181.139407 789.481906 C 266.54418 944.424706 290.700796 1099.019307 253.609255 1253.282834 C 216.512003 1407.529237 170.865707 1561.729974 116.676079 1715.890753 C 62.480739 1870.051533 50.762211 2002.207284 92.35385 2002.44132 " stroke="#f5cd65" stroke-width="45" stroke-opacity="1" stroke-miterlimit="4"/><path stroke-linecap="butt" transform="matrix(0.684013, 0, 0, 0.684325, 175.668617, -150.215423)" fill="none" stroke-linejoin="miter" d="M 374.352359 12.438967 C 186.587495 320.309581 135.727254 632.541243 221.137738 787.478335 C 306.548222 942.421135 330.704838 1097.021445 293.607585 1251.279263 C 256.510333 1405.531374 210.869748 1559.732111 156.674409 1713.887183 C 102.47907 1868.047963 90.760541 2000.209422 132.35218 2000.437749 " stroke="#f5cd65" stroke-width="45" stroke-opacity="1" stroke-miterlimit="4"/><path stroke-linecap="butt" transform="matrix(0.684013, 0, 0, 0.684325, 175.668617, -150.215423)" fill="none" stroke-linejoin="miter" d="M 412.351915 19.437194 C 224.592762 327.307808 173.732521 639.53947 259.137294 794.48227 C 344.547778 949.42507 368.704394 1104.019672 331.607141 1258.27749 C 294.5156 1412.529601 248.869304 1566.730338 194.673965 1720.891118 C 140.478626 1875.051898 128.760097 2007.207649 170.351737 2007.441684 " stroke="#f5cd65" stroke-width="45" stroke-opacity="1" stroke-miterlimit="4"/><path stroke-linecap="butt" transform="matrix(0.684013, 0, 0, 0.684325, 175.668617, -150.215423)" fill="none" stroke-linejoin="miter" d="M 446.353922 22.439696 C 258.589058 330.31031 207.728817 642.536264 293.139301 797.479064 C 378.544074 952.421864 402.70069 1107.022174 365.609149 1261.279992 C 328.511896 1415.532103 282.865601 1569.727132 228.675972 1723.887912 C 174.480633 1878.048691 162.762105 2010.210151 204.353744 2010.438478 " stroke="#f5cd65" stroke-width="45" stroke-opacity="1" stroke-miterlimit="4"/></g></svg>