<svg width="3019" height="1461" viewBox="0 0 3019 1461" fill="none" xmlns="http://www.w3.org/2000/svg">
<g opacity="0.7" filter="url(#filter0_d_599_2)">
<path d="M20 10H2999V1417.08L2952.45 1427.14L2928.66 1430.5H2900.73H2867.63L2821.09 1427.14L2799.37 1425.13L2778.68 1422.45L2760.06 1419.76L2744.54 1417.08L2715.58 1411.71L2661.79 1402.32L2576.97 1388.23L2482.85 1370.78L2411.47 1358.03L2296.66 1340.59L2125.99 1312.4L1906.7 1279.53L1833.26 1272.14L1783.61 1268.12L1732.92 1264.09L1689.48 1260.74L1641.9 1257.38L1607.77 1256.04L1576.73 1255.37H1549.84H1530.19H1516.74L1502.26 1256.04L1487.78 1256.71L1474.33 1257.38L1441.23 1260.07L1418.47 1262.08L1390.55 1264.76L1359.52 1268.12L1326.42 1272.14L1293.32 1276.84L1271.59 1280.2L1242.63 1286.24L1211.6 1294.29L1179.53 1302.34L1150.57 1309.72L1104.02 1321.13L1066.79 1331.19L1034.72 1340.59L986.106 1354.01L939.559 1365.41L888.875 1374.14L847.5 1378.83L797.85 1382.86H770.956H713.031L642.694 1380.85L593.044 1377.49L565.116 1375.48L524.775 1372.12L452.369 1364.74L375.825 1354.68L300.316 1343.94L219.634 1328.51L197.912 1324.48L175.156 1319.79L112.059 1307.04L69.65 1297.64L20 1286.24V10Z" fill="url(#paint0_linear_599_2)" shape-rendering="crispEdges"/>
</g>
<g opacity="0.7" filter="url(#filter1_d_599_2)">
<path d="M20 10H2999V1417.08L2952.45 1427.14L2928.66 1430.5H2900.73H2867.63L2821.09 1427.14L2799.37 1425.13L2778.68 1422.45L2760.06 1419.76L2744.54 1417.08L2715.58 1411.71L2661.79 1402.32L2576.97 1388.23L2482.85 1370.78L2411.47 1358.03L2296.66 1340.59L2125.99 1312.4L1906.7 1279.53L1833.26 1272.14L1783.61 1268.12L1732.92 1264.09L1689.48 1260.74L1641.9 1257.38L1607.77 1256.04L1576.73 1255.37H1549.84H1530.19H1516.74L1502.26 1256.04L1487.78 1256.71L1474.33 1257.38L1441.23 1260.07L1418.47 1262.08L1390.55 1264.76L1359.52 1268.12L1326.42 1272.14L1293.32 1276.84L1271.59 1280.2L1242.63 1286.24L1211.6 1294.29L1179.53 1302.34L1150.57 1309.72L1104.02 1321.13L1066.79 1331.19L1034.72 1340.59L986.106 1354.01L939.559 1365.41L888.875 1374.14L847.5 1378.83L797.85 1382.86H770.956H713.031L642.694 1380.85L593.044 1377.49L565.116 1375.48L524.775 1372.12L452.369 1364.74L375.825 1354.68L300.316 1343.94L219.634 1328.51L197.912 1324.48L175.156 1319.79L112.059 1307.04L69.65 1297.64L20 1286.24V10Z" fill="url(#paint1_linear_599_2)" shape-rendering="crispEdges"/>
</g>
<g opacity="0.7" filter="url(#filter2_d_599_2)">
<path d="M20 10H2999V1417.08L2952.45 1427.14L2928.66 1430.5H2900.73H2867.63L2821.09 1427.14L2799.37 1425.13L2778.68 1422.45L2760.06 1419.76L2744.54 1417.08L2715.58 1411.71L2661.79 1402.32L2576.97 1388.23L2482.85 1370.78L2411.47 1358.03L2296.66 1340.59L2125.99 1312.4L1906.7 1279.53L1833.26 1272.14L1783.61 1268.12L1732.92 1264.09L1689.48 1260.74L1641.9 1257.38L1607.77 1256.04L1576.73 1255.37H1549.84H1530.19H1516.74L1502.26 1256.04L1487.78 1256.71L1474.33 1257.38L1441.23 1260.07L1418.47 1262.08L1390.55 1264.76L1359.52 1268.12L1326.42 1272.14L1293.32 1276.84L1271.59 1280.2L1242.63 1286.24L1211.6 1294.29L1179.53 1302.34L1150.57 1309.72L1104.02 1321.13L1066.79 1331.19L1034.72 1340.59L986.106 1354.01L939.559 1365.41L888.875 1374.14L847.5 1378.83L797.85 1382.86H770.956H713.031L642.694 1380.85L593.044 1377.49L565.116 1375.48L524.775 1372.12L452.369 1364.74L375.825 1354.68L300.316 1343.94L219.634 1328.51L197.912 1324.48L175.156 1319.79L112.059 1307.04L69.65 1297.64L20 1286.24V10Z" fill="url(#paint2_linear_599_2)" shape-rendering="crispEdges"/>
</g>
<g opacity="0.7" filter="url(#filter3_d_599_2)">
<path d="M20 10H2999V1417.08L2952.45 1427.14L2928.66 1430.5H2900.73H2867.63L2821.09 1427.14L2799.37 1425.13L2778.68 1422.45L2760.06 1419.76L2744.54 1417.08L2715.58 1411.71L2661.79 1402.32L2576.97 1388.23L2482.85 1370.78L2411.47 1358.03L2296.66 1340.59L2125.99 1312.4L1906.7 1279.53L1833.26 1272.14L1783.61 1268.12L1732.92 1264.09L1689.48 1260.74L1641.9 1257.38L1607.77 1256.04L1576.73 1255.37H1549.84H1530.19H1516.74L1502.26 1256.04L1487.78 1256.71L1474.33 1257.38L1441.23 1260.07L1418.47 1262.08L1390.55 1264.76L1359.52 1268.12L1326.42 1272.14L1293.32 1276.84L1271.59 1280.2L1242.63 1286.24L1211.6 1294.29L1179.53 1302.34L1150.57 1309.72L1104.02 1321.13L1066.79 1331.19L1034.72 1340.59L986.106 1354.01L939.559 1365.41L888.875 1374.14L847.5 1378.83L797.85 1382.86H770.956H713.031L642.694 1380.85L593.044 1377.49L565.116 1375.48L524.775 1372.12L452.369 1364.74L375.825 1354.68L300.316 1343.94L219.634 1328.51L197.912 1324.48L175.156 1319.79L112.059 1307.04L69.65 1297.64L20 1286.24V10Z" fill="url(#paint3_linear_599_2)" shape-rendering="crispEdges"/>
</g>
<defs>
<filter id="filter0_d_599_2" x="0" y="-220" width="3019" height="1460.5" filterUnits="userSpaceOnUse" color-interpolation-filters="sRGB">
<feFlood flood-opacity="0" result="BackgroundImageFix"/>
<feColorMatrix in="SourceAlpha" type="matrix" values="0 0 0 0 0 0 0 0 0 0 0 0 0 0 0 0 0 0 127 0" result="hardAlpha"/>
<feOffset dy="10"/>
<feGaussianBlur stdDeviation="10"/>
<feComposite in2="hardAlpha" operator="out"/>
<feColorMatrix type="matrix" values="0 0 0 0 0 0 0 0 0 0 0 0 0 0 0 0 0 0 0.55 0"/>
<feBlend mode="normal" in2="BackgroundImageFix" result="effect1_dropShadow_599_2"/>
<feBlend mode="normal" in="SourceGraphic" in2="effect1_dropShadow_599_2" result="shape"/>
</filter>
<filter id="filter1_d_599_2" x="0" y="0" width="3019" height="1460.5" filterUnits="userSpaceOnUse" color-interpolation-filters="sRGB">
<feFlood flood-opacity="0" result="BackgroundImageFix"/>
<feColorMatrix in="SourceAlpha" type="matrix" values="0 0 0 0 0 0 0 0 0 0 0 0 0 0 0 0 0 0 127 0" result="hardAlpha"/>
<feOffset dy="10"/>
<feGaussianBlur stdDeviation="10"/>
<feComposite in2="hardAlpha" operator="out"/>
<feColorMatrix type="matrix" values="0 0 0 0 0 0 0 0 0 0 0 0 0 0 0 0 0 0 0.55 0"/>
<feBlend mode="normal" in2="BackgroundImageFix" result="effect1_dropShadow_599_2"/>
<feBlend mode="normal" in="SourceGraphic" in2="effect1_dropShadow_599_2" result="shape"/>
</filter>
<filter id="filter2_d_599_2" x="0" y="0" width="3019" height="1460.5" filterUnits="userSpaceOnUse" color-interpolation-filters="sRGB">
<feFlood flood-opacity="0" result="BackgroundImageFix"/>
<feColorMatrix in="SourceAlpha" type="matrix" values="0 0 0 0 0 0 0 0 0 0 0 0 0 0 0 0 0 0 127 0" result="hardAlpha"/>
<feOffset dy="10"/>
<feGaussianBlur stdDeviation="10"/>
<feComposite in2="hardAlpha" operator="out"/>
<feColorMatrix type="matrix" values="0 0 0 0 0 0 0 0 0 0 0 0 0 0 0 0 0 0 0.55 0"/>
<feBlend mode="normal" in2="BackgroundImageFix" result="effect1_dropShadow_599_2"/>
<feBlend mode="normal" in="SourceGraphic" in2="effect1_dropShadow_599_2" result="shape"/>
</filter>
<filter id="filter3_d_599_2" x="0" y="0" width="3019" height="1460.5" filterUnits="userSpaceOnUse" color-interpolation-filters="sRGB">
<feFlood flood-opacity="0" result="BackgroundImageFix"/>
<feColorMatrix in="SourceAlpha" type="matrix" values="0 0 0 0 0 0 0 0 0 0 0 0 0 0 0 0 0 0 127 0" result="hardAlpha"/>
<feOffset dy="10"/>
<feGaussianBlur stdDeviation="10"/>
<feComposite in2="hardAlpha" operator="out"/>
<feColorMatrix type="matrix" values="0 0 0 0 0 0 0 0 0 0 0 0 0 0 0 0 0 0 0.55 0"/>
<feBlend mode="normal" in2="BackgroundImageFix" result="effect1_dropShadow_599_2"/>
<feBlend mode="normal" in="SourceGraphic" in2="effect1_dropShadow_599_2" result="shape"/>
</filter>
<linearGradient id="paint0_linear_599_2" x1="192.741" y1="774.356" x2="3437.44" y2="855.432" gradientUnits="userSpaceOnUse">
<stop offset="0.0520833" stop-color="#9999EA" stop-opacity="0.654902"/>
<stop offset="1" stop-color="#5129DE"/>
</linearGradient>
<linearGradient id="paint1_linear_599_2" x1="192.741" y1="774.356" x2="3437.44" y2="855.432" gradientUnits="userSpaceOnUse">
<stop offset="0.0520833" stop-color="#9999EA" stop-opacity="0.654902"/>
<stop offset="1" stop-color="#5129DE"/>
</linearGradient>
<linearGradient id="paint2_linear_599_2" x1="192.741" y1="774.356" x2="3437.44" y2="855.432" gradientUnits="userSpaceOnUse">
<stop offset="0.0520833" stop-color="#9999EA" stop-opacity="0.654902"/>
<stop offset="1" stop-color="#5129DE"/>
</linearGradient>
<linearGradient id="paint3_linear_599_2" x1="192.741" y1="774.356" x2="3437.44" y2="855.432" gradientUnits="userSpaceOnUse">
<stop offset="0.0520833" stop-color="#9999EA" stop-opacity="0.654902"/>
<stop offset="1" stop-color="#5129DE"/>
</linearGradient>
</defs>
</svg>
