<svg width="43" height="44" viewBox="0 0 43 44" fill="none" xmlns="http://www.w3.org/2000/svg">
<path d="M38.5757 37.5271L30.1655 28.923C32.6031 25.9285 33.8187 22.0875 33.5592 18.1993C33.2998 14.311 31.5854 10.6748 28.7726 8.04704C25.9599 5.41927 22.2654 4.00228 18.4576 4.09083C14.6499 4.17938 11.0221 5.76666 8.32888 8.52247C5.63571 11.2783 4.0845 14.9904 3.99797 18.8867C3.91143 22.783 5.29622 26.5635 7.86427 29.4417C10.4323 32.3198 13.9859 34.0741 17.7858 34.3396C21.5857 34.605 25.3393 33.3612 28.2658 30.8669L36.6743 39.4727C36.7992 39.6005 36.9474 39.7018 37.1105 39.7709C37.2736 39.8401 37.4485 39.8757 37.625 39.8757C37.8016 39.8757 37.9764 39.8401 38.1395 39.7709C38.3027 39.7018 38.4509 39.6005 38.5757 39.4727C38.7006 39.345 38.7996 39.1933 38.8672 39.0264C38.9347 38.8595 38.9695 38.6806 38.9695 38.4999C38.9695 38.3192 38.9347 38.1403 38.8672 37.9734C38.7996 37.8065 38.7006 37.6548 38.5757 37.5271ZM6.71877 19.2499C6.71877 16.8024 7.42805 14.4098 8.75693 12.3747C10.0858 10.3397 11.9746 8.75353 14.1844 7.81689C16.3943 6.88026 18.8259 6.63519 21.1719 7.11269C23.5178 7.59018 25.6727 8.76878 27.3641 10.4995C29.0554 12.2301 30.2073 14.4351 30.6739 16.8357C31.1405 19.2362 30.901 21.7244 29.9857 23.9856C29.0703 26.2468 27.5203 28.1796 25.5314 29.5393C23.5426 30.8991 21.2044 31.6249 18.8125 31.6249C15.6061 31.6213 12.5321 30.3163 10.2649 27.9963C7.99762 25.6764 6.72232 22.5308 6.71877 19.2499Z" fill="#102C57"/>
</svg>
