<svg width="41" height="39" viewBox="0 0 41 39" fill="none" xmlns="http://www.w3.org/2000/svg">
<path d="M40.4265 36.6269C37.5005 31.4979 32.9914 27.8202 27.7292 26.0768C30.3321 24.5057 32.3544 22.1117 33.4856 19.2624C34.6167 16.4132 34.7941 13.2662 33.9906 10.3049C33.187 7.34348 31.4469 4.73142 29.0375 2.86982C26.6281 1.00822 23.6826 0 20.6533 0C17.6241 0 14.6786 1.00822 12.2692 2.86982C9.85974 4.73142 8.11964 7.34348 7.31608 10.3049C6.51252 13.2662 6.68993 16.4132 7.82106 19.2624C8.9522 22.1117 10.9745 24.5057 13.5775 26.0768C8.31523 27.8183 3.80612 31.496 0.880094 36.6269C0.772792 36.8043 0.701619 37.0017 0.670775 37.2074C0.639931 37.4132 0.65004 37.6231 0.700507 37.8248C0.750973 38.0265 0.840775 38.2159 0.964613 38.3819C1.08845 38.5479 1.24382 38.687 1.42154 38.7911C1.59927 38.8952 1.79576 38.9621 1.99941 38.9879C2.20307 39.0138 2.40977 38.998 2.60731 38.9415C2.80486 38.8851 2.98925 38.7891 3.14961 38.6592C3.30997 38.5293 3.44305 38.3682 3.54099 38.1853C7.16057 31.8427 13.5582 28.0559 20.6533 28.0559C27.7484 28.0559 34.1461 31.8427 37.7657 38.1853C37.8636 38.3682 37.9967 38.5293 38.157 38.6592C38.3174 38.7891 38.5018 38.8851 38.6993 38.9415C38.8969 38.998 39.1036 39.0138 39.3072 38.9879C39.5109 38.9621 39.7074 38.8952 39.8851 38.7911C40.0628 38.687 40.2182 38.5479 40.342 38.3819C40.4659 38.2159 40.5557 38.0265 40.6061 37.8248C40.6566 37.6231 40.6667 37.4132 40.6359 37.2074C40.605 37.0017 40.5338 36.8043 40.4265 36.6269ZM9.89447 14.0306C9.89447 11.8731 10.5255 9.76403 11.7077 7.97013C12.8899 6.17622 14.5702 4.77804 16.5361 3.9524C18.502 3.12675 20.6653 2.91073 22.7523 3.33164C24.8393 3.75255 26.7563 4.79149 28.261 6.31708C29.7656 7.84267 30.7903 9.78639 31.2054 11.9024C31.6206 14.0185 31.4075 16.2118 30.5932 18.2051C29.7789 20.1984 28.3999 21.9021 26.6306 23.1007C24.8613 24.2994 22.7812 24.9392 20.6533 24.9392C17.8008 24.9361 15.0661 23.7858 13.049 21.7407C11.032 19.6956 9.89752 16.9228 9.89447 14.0306Z" fill="black"/>
</svg>
