<svg width="50" height="40" viewBox="0 0 50 40" fill="none" xmlns="http://www.w3.org/2000/svg">
<path d="M50 23.2467C50 23.7168 49.8244 24.1676 49.5118 24.4999C49.1993 24.8323 48.7753 25.019 48.3333 25.019H44.9999V28.5635C44.9999 29.0336 44.8243 29.4844 44.5118 29.8167C44.1992 30.1491 43.7753 30.3358 43.3333 30.3358C42.8912 30.3358 42.4673 30.1491 42.1547 29.8167C41.8422 29.4844 41.6666 29.0336 41.6666 28.5635V25.019H38.3332C37.8912 25.019 37.4672 24.8323 37.1547 24.4999C36.8421 24.1676 36.6665 23.7168 36.6665 23.2467C36.6665 22.7767 36.8421 22.3259 37.1547 21.9936C37.4672 21.6612 37.8912 21.4745 38.3332 21.4745H41.6666V17.93C41.6666 17.4599 41.8422 17.0091 42.1547 16.6768C42.4673 16.3444 42.8912 16.1577 43.3333 16.1577C43.7753 16.1577 44.1992 16.3444 44.5118 16.6768C44.8243 17.0091 44.9999 17.4599 44.9999 17.93V21.4745H48.3333C48.7753 21.4745 49.1993 21.6612 49.5118 21.9936C49.8244 22.3259 50 22.7767 50 23.2467ZM37.9436 36.284C38.2282 36.6441 38.3665 37.1097 38.3282 37.5784C38.29 38.047 38.0782 38.4803 37.7394 38.7828C37.4007 39.0854 36.9629 39.2325 36.5222 39.1918C36.0814 39.1511 35.674 38.9259 35.3894 38.5657C31.1977 33.2578 25.4352 30.3358 19.1663 30.3358C12.8975 30.3358 7.13495 33.2578 2.94324 38.5657C2.65868 38.9256 2.25134 39.1505 1.81082 39.191C1.3703 39.2315 0.932688 39.0843 0.594257 38.7817C0.255826 38.4791 0.0442969 38.046 0.00620312 37.5776C-0.0318906 37.1091 0.106571 36.6438 0.39113 36.284C3.50366 32.3451 7.37454 29.5471 11.6767 28.0496C9.06394 26.3192 7.05229 23.7311 5.94605 20.6767C4.83982 17.6223 4.69919 14.268 5.54546 11.1211C6.39172 7.97415 8.17882 5.20593 10.6364 3.23521C13.094 1.26448 16.0883 0.198486 19.1663 0.198486C22.2444 0.198486 25.2387 1.26448 27.6963 3.23521C30.1539 5.20593 31.9409 7.97415 32.7872 11.1211C33.6335 14.268 33.4928 17.6223 32.3866 20.6767C31.2804 23.7311 29.2687 26.3192 26.656 28.0496C30.9581 29.5471 34.829 32.3451 37.9436 36.284ZM19.1663 26.7913C21.309 26.7913 23.4035 26.1157 25.1851 24.8499C26.9666 23.5841 28.3552 21.7849 29.1751 19.68C29.9951 17.575 30.2096 15.2588 29.7916 13.0242C29.3736 10.7896 28.3418 8.73697 26.8267 7.12591C25.3117 5.51485 23.3813 4.41771 21.2798 3.97322C19.1784 3.52873 17.0001 3.75686 15.0206 4.62875C13.041 5.50065 11.349 6.97716 10.1586 8.87157C8.96825 10.766 8.33288 12.9932 8.33288 15.2716C8.33619 18.3257 9.47863 21.2537 11.5096 23.4133C13.5405 25.5729 16.2941 26.7878 19.1663 26.7913Z" fill="black"/>
</svg>
