<svg width="469" height="3883" viewBox="0 0 469 3883" fill="none" xmlns="http://www.w3.org/2000/svg">
<path d="M290.354 10.7852C102.59 604.447 51.7298 1206.52 137.138 1505.29C222.546 1804.06 246.703 2102.17 209.608 2399.62C172.513 2697.07 126.868 2994.42 72.6738 3291.68C18.4794 3588.94 6.76098 3843.78 48.354 3844.23" stroke="#EAA900" stroke-opacity="0.54" stroke-width="45"/>
<path d="M290.354 10.7852C102.59 604.447 51.7298 1206.52 137.138 1505.29C222.546 1804.06 246.703 2102.17 209.608 2399.62C172.513 2697.07 126.868 2994.42 72.6738 3291.68C18.4794 3588.94 6.76098 3843.78 48.354 3844.23" stroke="#F5CD65" stroke-width="45"/>
<path d="M334.708 11.6318C146.944 605.294 96.0838 1207.36 181.492 1506.14C266.9 1804.91 291.057 2103.02 253.962 2400.47C216.867 2697.91 171.222 2995.27 117.028 3292.53C62.8335 3589.79 51.115 3844.62 92.708 3845.07" stroke="#F5CD65" stroke-width="45"/>
<path d="M374.708 7.77539C186.944 601.437 136.084 1203.51 221.492 1502.28C306.9 1801.05 331.057 2099.16 293.962 2396.61C256.867 2694.06 211.222 2991.41 157.028 3288.67C102.833 3585.93 91.115 3840.77 132.708 3841.22" stroke="#F5CD65" stroke-width="45"/>
<path d="M412.708 21.2734C224.944 614.935 174.084 1217.01 259.492 1515.78C344.9 1814.55 369.057 2112.66 331.962 2410.11C294.867 2707.55 249.222 3004.91 195.028 3302.17C140.833 3599.43 129.115 3854.26 170.708 3854.71" stroke="#F5CD65" stroke-width="45"/>
<path d="M446.708 27.0581C258.944 620.72 208.084 1222.79 293.492 1521.56C378.9 1820.34 403.057 2118.45 365.962 2415.89C328.867 2713.34 283.222 3010.69 229.028 3307.95C174.833 3605.21 163.115 3860.05 204.708 3860.5" stroke="#F5CD65" stroke-width="45"/>
</svg>
