<svg xmlns="http://www.w3.org/2000/svg" xmlns:xlink="http://www.w3.org/1999/xlink" width="1920" zoomAndPan="magnify" viewBox="0 0 1440 809.999993" height="1080" preserveAspectRatio="xMidYMid meet" version="1.0"><defs><clipPath id="a2b3982ef9"><path d="M 166.308594 0 L 494.808594 0 L 494.808594 810 L 166.308594 810 Z M 166.308594 0 " clip-rule="nonzero"/></clipPath></defs><rect x="-144" width="1728" fill="#ffffff" y="-80.999999" height="971.999992" fill-opacity="1"/><rect x="-144" width="1728" fill="#fcffff" y="-80.999999" height="971.999992" fill-opacity="1"/><g clip-path="url(#a2b3982ef9)"><path stroke-linecap="butt" transform="matrix(0.704936, 0, 0, 0.704988, 166.309935, -311.363988)" fill="none" stroke-linejoin="miter" d="M 290.001319 13.997244 C 102.234831 321.870219 51.376905 634.098319 136.784751 789.043245 C 222.192598 943.98263 246.347065 1098.578481 209.253694 1252.84188 C 172.160323 1407.088657 126.516748 1561.302188 72.317426 1715.449228 C 18.123645 1869.607351 6.409366 2001.768214 48.002261 2002.00093 " stroke="#eaa900" stroke-width="45" stroke-opacity="0.54" stroke-miterlimit="4"/><path stroke-linecap="butt" transform="matrix(0.704936, 0, 0, 0.704988, 166.309935, -311.363988)" fill="none" stroke-linejoin="miter" d="M 290.001319 13.997244 C 102.234831 321.870219 51.376905 634.098319 136.784751 789.043245 C 222.192598 943.98263 246.347065 1098.578481 209.253694 1252.84188 C 172.160323 1407.088657 126.516748 1561.302188 72.317426 1715.449228 C 18.123645 1869.607351 6.409366 2001.768214 48.002261 2002.00093 " stroke="#f5cd65" stroke-width="45" stroke-opacity="1" stroke-miterlimit="4"/><path stroke-linecap="butt" transform="matrix(0.704936, 0, 0, 0.704988, 166.309935, -311.363988)" fill="none" stroke-linejoin="miter" d="M 334.353775 14.440514 C 146.587287 322.307948 95.729361 634.541589 181.137207 789.480974 C 266.545054 944.420359 290.705062 1099.021751 253.60615 1253.279609 C 216.512779 1407.531926 170.869204 1561.728835 116.675423 1715.892498 C 62.481643 1870.05062 50.761822 2002.211484 92.354717 2002.438659 " stroke="#f5cd65" stroke-width="45" stroke-opacity="1" stroke-miterlimit="4"/><path stroke-linecap="butt" transform="matrix(0.704936, 0, 0, 0.704988, 166.309935, -311.363988)" fill="none" stroke-linejoin="miter" d="M 374.356321 12.440259 C 186.589833 320.307693 135.731907 632.541334 221.139754 787.480719 C 306.5476 942.425645 330.702067 1097.021497 293.608696 1251.279355 C 256.515326 1405.531672 210.866209 1559.72858 156.672428 1713.892244 C 102.478648 1868.050366 90.758827 2000.211229 132.351722 2000.438405 " stroke="#f5cd65" stroke-width="45" stroke-opacity="1" stroke-miterlimit="4"/><path stroke-linecap="butt" transform="matrix(0.704936, 0, 0, 0.704988, 166.309935, -311.363988)" fill="none" stroke-linejoin="miter" d="M 412.352922 19.43838 C 224.591975 327.311355 173.728508 639.539455 259.136354 794.47884 C 344.544201 949.423766 368.704209 1104.019617 331.605297 1258.277475 C 294.511926 1412.529792 248.86835 1566.732242 194.67457 1720.890364 C 140.480789 1875.048486 128.760969 2007.20935 170.353864 2007.442066 " stroke="#f5cd65" stroke-width="45" stroke-opacity="1" stroke-miterlimit="4"/><path stroke-linecap="butt" transform="matrix(0.704936, 0, 0, 0.704988, 166.309935, -311.363988)" fill="none" stroke-linejoin="miter" d="M 446.354255 22.441532 C 258.587767 330.308966 207.729841 642.537066 293.137687 797.481992 C 378.545534 952.421377 402.705542 1107.022769 365.60663 1261.280627 C 328.513259 1415.527404 282.869684 1569.729853 228.675903 1723.887975 C 174.476581 1878.051639 162.762302 2010.212502 204.355197 2010.439678 " stroke="#f5cd65" stroke-width="45" stroke-opacity="1" stroke-miterlimit="4"/></g></svg>