<svg width="466" height="2033" viewBox="0 0 466 2033" fill="none" xmlns="http://www.w3.org/2000/svg">
<path d="M290 14C102.236 321.87 51.3758 634.1 136.784 789.042C222.192 943.984 246.349 1098.58 209.254 1252.84C172.159 1407.09 126.514 1561.3 72.3198 1715.45C18.1254 1869.61 6.40698 2001.77 48 2002" stroke="#EAA900" stroke-opacity="0.54" stroke-width="45"/>
<path d="M290 14C102.236 321.87 51.3758 634.1 136.784 789.042C222.192 943.984 246.349 1098.58 209.254 1252.84C172.159 1407.09 126.514 1561.3 72.3198 1715.45C18.1254 1869.61 6.40698 2001.77 48 2002" stroke="#F5CD65" stroke-width="45"/>
<path d="M334.354 14.4392C146.59 322.309 95.7297 634.539 181.138 789.481C266.546 944.423 290.703 1099.02 253.608 1253.28C216.513 1407.53 170.868 1561.73 116.674 1715.89C62.4793 1870.05 50.7609 2002.21 92.3539 2002.44" stroke="#F5CD65" stroke-width="45"/>
<path d="M374.354 12.4392C186.59 320.309 135.73 632.539 221.138 787.481C306.546 942.423 330.703 1097.02 293.608 1251.28C256.513 1405.53 210.868 1559.73 156.674 1713.89C102.479 1868.05 90.7609 2000.21 132.354 2000.44" stroke="#F5CD65" stroke-width="45"/>
<path d="M412.354 19.4392C224.59 327.309 173.73 639.539 259.138 794.481C344.546 949.423 368.703 1104.02 331.608 1258.28C294.513 1412.53 248.868 1566.73 194.674 1720.89C140.479 1875.05 128.761 2007.21 170.354 2007.44" stroke="#F5CD65" stroke-width="45"/>
<path d="M446.354 22.4392C258.59 330.309 207.73 642.539 293.138 797.481C378.546 952.423 402.703 1107.02 365.608 1261.28C328.513 1415.53 282.868 1569.73 228.674 1723.89C174.479 1878.05 162.761 2010.21 204.354 2010.44" stroke="#F5CD65" stroke-width="45"/>
</svg>
