<svg xmlns="http://www.w3.org/2000/svg" xmlns:xlink="http://www.w3.org/1999/xlink" width="1920" zoomAndPan="magnify" viewBox="0 0 1440 809.999993" height="1080" preserveAspectRatio="xMidYMid meet" version="1.0"><path fill="#6ba7c4" d="M 967.417969 486.214844 C 966.386719 488.941406 965.304688 491.648438 964.171875 494.335938 C 963.039062 497.019531 961.859375 499.6875 960.625 502.328125 C 959.394531 504.972656 958.113281 507.589844 956.785156 510.183594 C 955.453125 512.78125 954.078125 515.351562 952.652344 517.894531 C 951.226562 520.4375 949.757812 522.953125 948.238281 525.441406 C 946.71875 527.929688 945.152344 530.390625 943.542969 532.820312 C 941.933594 535.253906 940.277344 537.652344 938.578125 540.019531 C 936.878906 542.390625 935.136719 544.726562 933.347656 547.03125 C 931.5625 549.332031 929.734375 551.601562 927.863281 553.839844 C 925.992188 556.074219 924.078125 558.273438 922.125 560.4375 C 920.171875 562.605469 918.179688 564.730469 916.148438 566.820312 C 914.113281 568.910156 912.042969 570.960938 909.933594 572.976562 C 907.824219 574.988281 905.679688 576.960938 903.496094 578.894531 C 901.316406 580.828125 899.097656 582.71875 896.84375 584.570312 C 894.59375 586.417969 892.304688 588.226562 889.984375 589.992188 C 887.664062 591.757812 885.3125 593.480469 882.929688 595.15625 C 880.542969 596.832031 878.128906 598.464844 875.683594 600.054688 C 873.238281 601.640625 870.765625 603.183594 868.265625 604.675781 C 865.761719 606.171875 863.230469 607.621094 860.675781 609.023438 C 858.121094 610.421875 855.539062 611.777344 852.929688 613.082031 C 850.324219 614.386719 847.695312 615.640625 845.039062 616.847656 C 842.386719 618.054688 839.710938 619.210938 837.015625 620.316406 C 834.320312 621.425781 831.601562 622.480469 828.867188 623.488281 C 826.128906 624.492188 823.375 625.449219 820.605469 626.351562 C 817.832031 627.253906 815.046875 628.105469 812.242188 628.902344 C 809.441406 629.703125 806.621094 630.449219 803.792969 631.144531 C 800.960938 631.839844 798.117188 632.480469 795.261719 633.066406 C 792.40625 633.65625 789.542969 634.191406 786.667969 634.671875 C 783.792969 635.152344 780.910156 635.582031 778.019531 635.957031 C 775.128906 636.328125 772.230469 636.648438 769.328125 636.914062 C 766.425781 637.183594 763.519531 637.394531 760.609375 637.550781 C 757.699219 637.710938 754.785156 637.8125 751.871094 637.863281 L 754.113281 769.980469 C 758.675781 769.902344 763.234375 769.742188 767.792969 769.496094 C 772.351562 769.25 776.902344 768.917969 781.449219 768.503906 C 785.992188 768.085938 790.527344 767.585938 795.054688 767.003906 C 799.582031 766.417969 804.09375 765.75 808.597656 765 C 813.097656 764.246094 817.585938 763.410156 822.054688 762.492188 C 826.527344 761.574219 830.980469 760.574219 835.414062 759.488281 C 839.847656 758.40625 844.257812 757.238281 848.648438 755.992188 C 853.039062 754.742188 857.40625 753.414062 861.746094 752.003906 C 866.085938 750.59375 870.398438 749.105469 874.683594 747.535156 C 878.972656 745.964844 883.226562 744.3125 887.449219 742.585938 C 891.675781 740.855469 895.867188 739.050781 900.023438 737.167969 C 904.179688 735.28125 908.300781 733.320312 912.386719 731.285156 C 916.46875 729.246094 920.515625 727.136719 924.519531 724.949219 C 928.527344 722.761719 932.492188 720.5 936.414062 718.164062 C 940.335938 715.828125 944.214844 713.421875 948.046875 710.941406 C 951.878906 708.464844 955.664062 705.914062 959.402344 703.292969 C 963.140625 700.675781 966.828125 697.988281 970.464844 695.230469 C 974.105469 692.472656 977.691406 689.648438 981.222656 686.761719 C 984.757812 683.871094 988.238281 680.917969 991.660156 677.898438 C 995.082031 674.878906 998.449219 671.796875 1001.761719 668.652344 C 1005.070312 665.507812 1008.320312 662.304688 1011.507812 659.039062 C 1014.699219 655.773438 1017.828125 652.449219 1020.894531 649.070312 C 1023.960938 645.6875 1026.964844 642.25 1029.90625 638.757812 C 1032.84375 635.265625 1035.71875 631.71875 1038.523438 628.117188 C 1041.332031 624.519531 1044.074219 620.867188 1046.746094 617.167969 C 1049.417969 613.464844 1052.019531 609.714844 1054.550781 605.917969 C 1057.085938 602.121094 1059.546875 598.277344 1061.9375 594.386719 C 1064.328125 590.496094 1066.644531 586.5625 1068.886719 582.589844 C 1071.132812 578.613281 1073.300781 574.597656 1075.398438 570.539062 C 1077.492188 566.484375 1079.511719 562.390625 1081.453125 558.257812 C 1083.398438 554.128906 1085.261719 549.960938 1087.050781 545.761719 C 1088.839844 541.558594 1090.550781 537.328125 1092.179688 533.0625 Z M 967.417969 486.214844 " fill-opacity="1" fill-rule="nonzero"/><path fill="#ef6843" d="M 993.503906 132.226562 L 905.492188 229.605469 C 907.65625 231.566406 909.78125 233.570312 911.875 235.609375 C 913.964844 237.652344 916.015625 239.730469 918.027344 241.847656 C 920.039062 243.964844 922.011719 246.121094 923.941406 248.3125 C 925.875 250.503906 927.765625 252.730469 929.613281 254.992188 C 931.460938 257.253906 933.265625 259.550781 935.027344 261.878906 C 936.792969 264.207031 938.511719 266.570312 940.183594 268.964844 C 941.859375 271.359375 943.488281 273.78125 945.070312 276.238281 C 946.65625 278.691406 948.191406 281.175781 949.683594 283.6875 C 951.175781 286.199219 952.617188 288.738281 954.015625 291.304688 C 955.410156 293.871094 956.757812 296.464844 958.058594 299.078125 C 959.355469 301.695312 960.605469 304.335938 961.804688 307 C 963.007812 309.664062 964.15625 312.347656 965.257812 315.054688 C 966.355469 317.761719 967.40625 320.488281 968.402344 323.234375 C 969.402344 325.980469 970.347656 328.742188 971.242188 331.523438 C 972.140625 334.304688 972.980469 337.101562 973.773438 339.914062 C 974.5625 342.726562 975.300781 345.554688 975.984375 348.394531 C 976.667969 351.234375 977.300781 354.085938 977.878906 356.949219 C 978.457031 359.8125 978.980469 362.6875 979.453125 365.570312 C 979.921875 368.453125 980.339844 371.34375 980.703125 374.246094 C 981.066406 377.144531 981.371094 380.046875 981.625 382.960938 C 981.882812 385.871094 982.082031 388.785156 982.226562 391.703125 C 982.371094 394.621094 982.460938 397.539062 982.496094 400.460938 C 982.535156 403.382812 982.515625 406.304688 982.441406 409.226562 C 982.367188 412.144531 982.242188 415.0625 982.058594 417.980469 C 981.875 420.894531 981.640625 423.808594 981.347656 426.714844 C 981.058594 429.621094 980.710938 432.523438 980.3125 435.417969 C 979.914062 438.3125 979.460938 441.195312 978.953125 444.074219 C 978.445312 446.949219 977.882812 449.816406 977.269531 452.675781 C 976.652344 455.53125 975.988281 458.375 975.265625 461.207031 C 974.542969 464.035156 973.769531 466.851562 972.945312 469.65625 C 972.117188 472.457031 971.242188 475.242188 970.308594 478.011719 C 969.378906 480.78125 968.398438 483.535156 967.367188 486.265625 L 1092.289062 533.0625 C 1093.863281 528.777344 1095.355469 524.46875 1096.769531 520.128906 C 1098.183594 515.789062 1099.519531 511.421875 1100.769531 507.035156 C 1102.023438 502.644531 1103.195312 498.234375 1104.28125 493.800781 C 1105.371094 489.367188 1106.375 484.914062 1107.300781 480.445312 C 1108.222656 475.976562 1109.0625 471.488281 1109.820312 466.988281 C 1110.578125 462.488281 1111.25 457.972656 1111.839844 453.445312 C 1112.429688 448.921875 1112.933594 444.382812 1113.355469 439.839844 C 1113.777344 435.292969 1114.113281 430.742188 1114.367188 426.183594 C 1114.617188 421.628906 1114.785156 417.066406 1114.867188 412.503906 C 1114.949219 407.9375 1114.949219 403.375 1114.863281 398.8125 C 1114.777344 394.246094 1114.605469 389.6875 1114.347656 385.128906 C 1114.09375 380.570312 1113.753906 376.019531 1113.328125 371.476562 C 1112.902344 366.929688 1112.394531 362.394531 1111.800781 357.871094 C 1111.207031 353.34375 1110.53125 348.832031 1109.769531 344.328125 C 1109.011719 339.828125 1108.167969 335.34375 1107.238281 330.875 C 1106.3125 326.40625 1105.300781 321.953125 1104.210938 317.523438 C 1103.117188 313.089844 1101.945312 308.679688 1100.6875 304.292969 C 1099.433594 299.902344 1098.09375 295.539062 1096.675781 291.203125 C 1095.257812 286.863281 1093.761719 282.550781 1092.183594 278.269531 C 1090.605469 273.984375 1088.949219 269.734375 1087.214844 265.511719 C 1085.476562 261.289062 1083.664062 257.101562 1081.773438 252.949219 C 1079.882812 248.792969 1077.914062 244.675781 1075.871094 240.59375 C 1073.828125 236.515625 1071.707031 232.472656 1069.511719 228.46875 C 1067.320312 224.46875 1065.050781 220.507812 1062.710938 216.589844 C 1060.371094 212.671875 1057.957031 208.796875 1055.472656 204.96875 C 1052.988281 201.140625 1050.433594 197.359375 1047.808594 193.625 C 1045.183594 189.894531 1042.488281 186.210938 1039.726562 182.574219 C 1036.964844 178.941406 1034.136719 175.359375 1031.242188 171.832031 C 1028.347656 168.304688 1025.390625 164.832031 1022.367188 161.410156 C 1019.34375 157.992188 1016.257812 154.632812 1013.109375 151.328125 C 1009.960938 148.023438 1006.75 144.78125 1003.480469 141.59375 C 1000.214844 138.410156 996.886719 135.285156 993.503906 132.226562 Z M 993.503906 132.226562 " fill-opacity="1" fill-rule="nonzero"/><path fill="#f18642" d="M 748.03125 168.882812 C 755.636719 168.871094 763.222656 169.230469 770.792969 169.964844 C 778.363281 170.695312 785.878906 171.792969 793.34375 173.257812 C 800.804688 174.722656 808.179688 176.546875 815.464844 178.730469 C 822.75 180.917969 829.910156 183.453125 836.945312 186.339844 C 843.984375 189.222656 850.863281 192.445312 857.585938 196.003906 C 864.308594 199.558594 870.84375 203.4375 877.1875 207.632812 C 883.53125 211.828125 889.65625 216.324219 895.558594 221.117188 C 901.464844 225.914062 907.121094 230.984375 912.53125 236.328125 L 1004.597656 142.628906 C 861.859375 -0.160156 632.230469 2.402344 489.492188 145.191406 L 582.039062 237.824219 C 587.460938 232.367188 593.140625 227.191406 599.078125 222.292969 C 605.011719 217.398438 611.175781 212.804688 617.5625 208.519531 C 623.953125 204.230469 630.535156 200.269531 637.316406 196.632812 C 644.097656 192.996094 651.039062 189.703125 658.144531 186.75 C 665.25 183.800781 672.480469 181.207031 679.84375 178.96875 C 687.203125 176.734375 694.65625 174.867188 702.203125 173.367188 C 709.75 171.867188 717.351562 170.742188 725.007812 169.992188 C 732.664062 169.242188 740.339844 168.875 748.03125 168.882812 Z M 748.03125 168.882812 " fill-opacity="1" fill-rule="nonzero"/><path fill="#f5b86f" d="M 513.601562 403.398438 C 513.59375 395.609375 513.976562 387.835938 514.742188 380.082031 C 515.511719 372.328125 516.667969 364.632812 518.203125 356.992188 C 519.742188 349.355469 521.65625 341.8125 523.949219 334.367188 C 526.242188 326.917969 528.898438 319.605469 531.921875 312.425781 C 534.941406 305.242188 538.316406 298.230469 542.039062 291.386719 C 545.761719 284.542969 549.816406 277.902344 554.203125 271.464844 C 558.589844 265.027344 563.289062 258.824219 568.296875 252.855469 C 573.300781 246.886719 578.59375 241.183594 584.171875 235.742188 L 492.425781 141.617188 C 489.160156 144.804688 485.953125 148.050781 482.804688 151.359375 C 479.660156 154.667969 476.574219 158.03125 473.550781 161.453125 C 470.53125 164.875 467.574219 168.351562 464.679688 171.882812 C 461.785156 175.417969 458.960938 179 456.199219 182.636719 C 453.441406 186.273438 450.75 189.960938 448.125 193.699219 C 445.503906 197.433594 442.953125 201.21875 440.46875 205.050781 C 437.988281 208.882812 435.574219 212.757812 433.238281 216.679688 C 430.898438 220.601562 428.632812 224.5625 426.441406 228.570312 C 424.25 232.574219 422.132812 236.621094 420.09375 240.703125 C 418.050781 244.785156 416.085938 248.90625 414.199219 253.0625 C 412.308594 257.222656 410.5 261.410156 408.765625 265.636719 C 407.035156 269.859375 405.378906 274.113281 403.804688 278.402344 C 402.230469 282.6875 400.734375 287 399.320312 291.339844 C 397.90625 295.683594 396.574219 300.046875 395.320312 304.4375 C 394.066406 308.828125 392.898438 313.242188 391.808594 317.675781 C 390.71875 322.109375 389.710938 326.5625 388.789062 331.035156 C 387.867188 335.503906 387.023438 339.992188 386.269531 344.496094 C 385.511719 349 384.835938 353.515625 384.25 358.042969 C 383.660156 362.570312 383.152344 367.105469 382.734375 371.652344 C 382.3125 376.199219 381.976562 380.753906 381.722656 385.3125 C 381.472656 389.871094 381.304688 394.433594 381.222656 398.996094 C 381.140625 403.5625 381.140625 408.128906 381.226562 412.695312 C 381.316406 417.257812 381.484375 421.820312 381.742188 426.378906 C 382 430.9375 382.339844 435.492188 382.765625 440.035156 C 383.1875 444.582031 383.699219 449.121094 384.292969 453.648438 C 384.886719 458.175781 385.5625 462.6875 386.324219 467.191406 C 387.085938 471.691406 387.929688 476.179688 388.859375 480.648438 C 389.785156 485.121094 390.796875 489.574219 391.890625 494.003906 C 392.980469 498.4375 394.15625 502.851562 395.414062 507.238281 C 396.667969 511.628906 398.007812 515.992188 399.425781 520.332031 C 400.84375 524.671875 402.34375 528.984375 403.921875 533.269531 C 405.5 537.554688 407.160156 541.808594 408.894531 546.03125 L 531.953125 494.429688 C 525.882812 480.023438 521.300781 465.160156 518.214844 449.835938 C 515.125 434.511719 513.585938 419.03125 513.601562 403.398438 Z M 513.601562 403.398438 " fill-opacity="1" fill-rule="nonzero"/><path fill="#547b97" d="M 748.03125 637.914062 C 745.167969 637.914062 742.304688 637.859375 739.445312 637.753906 C 736.582031 637.648438 733.722656 637.488281 730.867188 637.277344 C 728.011719 637.066406 725.160156 636.804688 722.316406 636.488281 C 719.46875 636.171875 716.628906 635.804688 713.796875 635.386719 C 710.964844 634.96875 708.140625 634.496094 705.324219 633.972656 C 702.507812 633.453125 699.703125 632.878906 696.910156 632.253906 C 694.117188 631.628906 691.332031 630.949219 688.5625 630.222656 C 685.792969 629.496094 683.039062 628.71875 680.296875 627.890625 C 677.554688 627.0625 674.832031 626.183594 672.121094 625.257812 C 669.414062 624.328125 666.722656 623.351562 664.046875 622.324219 C 661.375 621.296875 658.71875 620.222656 656.085938 619.101562 C 653.453125 617.976562 650.839844 616.804688 648.25 615.585938 C 645.65625 614.367188 643.089844 613.101562 640.542969 611.785156 C 638 610.472656 635.480469 609.113281 632.984375 607.707031 C 630.488281 606.304688 628.019531 604.851562 625.578125 603.355469 C 623.136719 601.859375 620.722656 600.320312 618.335938 598.734375 C 615.953125 597.152344 613.597656 595.523438 611.269531 593.851562 C 608.945312 592.183594 606.648438 590.46875 604.386719 588.714844 C 602.121094 586.960938 599.890625 585.164062 597.695312 583.328125 C 595.496094 581.492188 593.332031 579.617188 591.203125 577.699219 C 589.074219 575.785156 586.980469 573.832031 584.921875 571.839844 C 582.867188 569.847656 580.84375 567.816406 578.863281 565.75 C 576.878906 563.683594 574.933594 561.582031 573.027344 559.445312 C 571.121094 557.308594 569.253906 555.136719 567.425781 552.933594 C 565.601562 550.726562 563.8125 548.488281 562.070312 546.214844 C 560.324219 543.945312 558.621094 541.644531 556.960938 539.308594 C 555.296875 536.976562 553.679688 534.613281 552.105469 532.21875 C 550.53125 529.828125 549.003906 527.40625 547.515625 524.957031 C 546.03125 522.507812 544.589844 520.035156 543.195312 517.53125 C 541.800781 515.03125 540.449219 512.503906 539.148438 509.953125 C 537.84375 507.402344 536.589844 504.828125 535.378906 502.230469 C 534.171875 499.636719 533.011719 497.015625 531.898438 494.378906 L 409.214844 545.921875 C 411.007812 550.121094 412.875 554.289062 414.820312 558.417969 C 416.761719 562.550781 418.785156 566.640625 420.882812 570.699219 C 422.976562 574.753906 425.148438 578.769531 427.394531 582.742188 C 429.640625 586.71875 431.960938 590.648438 434.351562 594.539062 C 436.742188 598.425781 439.207031 602.269531 441.742188 606.066406 C 444.273438 609.863281 446.878906 613.613281 449.554688 617.3125 C 452.226562 621.015625 454.96875 624.664062 457.777344 628.261719 C 460.585938 631.863281 463.460938 635.40625 466.402344 638.898438 C 469.34375 642.390625 472.347656 645.828125 475.414062 649.207031 C 478.484375 652.585938 481.613281 655.910156 484.804688 659.171875 C 487.996094 662.4375 491.246094 665.640625 494.558594 668.785156 C 497.867188 671.925781 501.234375 675.007812 504.660156 678.027344 C 508.085938 681.042969 511.5625 683.996094 515.097656 686.886719 C 518.632812 689.777344 522.21875 692.597656 525.859375 695.351562 C 529.5 698.109375 533.1875 700.796875 536.925781 703.414062 C 540.664062 706.035156 544.453125 708.582031 548.285156 711.058594 C 552.117188 713.539062 555.996094 715.945312 559.917969 718.277344 C 563.84375 720.613281 567.808594 722.871094 571.8125 725.058594 C 575.820312 727.246094 579.867188 729.355469 583.953125 731.394531 C 588.035156 733.429688 592.15625 735.390625 596.316406 737.273438 C 600.472656 739.15625 604.664062 740.960938 608.890625 742.6875 C 613.113281 744.414062 617.371094 746.0625 621.65625 747.632812 C 625.941406 749.203125 630.257812 750.691406 634.597656 752.101562 C 638.9375 753.511719 643.304688 754.839844 647.695312 756.085938 C 652.085938 757.332031 656.5 758.496094 660.933594 759.582031 C 665.367188 760.664062 669.816406 761.664062 674.289062 762.582031 C 678.761719 763.5 683.246094 764.335938 687.75 765.085938 C 692.25 765.835938 696.765625 766.503906 701.292969 767.085938 C 705.820312 767.671875 710.355469 768.167969 714.898438 768.585938 C 719.445312 769 723.996094 769.328125 728.554688 769.574219 C 733.113281 769.820312 737.671875 769.980469 742.234375 770.058594 C 746.800781 770.136719 751.363281 770.125 755.925781 770.035156 L 753.152344 637.914062 Z M 748.03125 637.914062 " fill-opacity="1" fill-rule="nonzero"/><path fill="#f5b86f" d="M 535.417969 190.707031 L 455.460938 109.867188 L 549.980469 95.195312 L 644.445312 80.464844 L 629.882812 176.035156 L 615.375 271.546875 Z M 535.417969 190.707031 " fill-opacity="1" fill-rule="nonzero"/><path fill="#f18642" d="M 959.257812 187.667969 L 1040.066406 107.679688 L 1054.738281 202.234375 L 1069.40625 296.734375 L 973.925781 282.167969 L 878.449219 267.652344 Z M 959.257812 187.667969 " fill-opacity="1" fill-rule="nonzero"/><path fill="#ef6843" d="M 1033.082031 506.808594 L 1138 550.671875 L 1056.390625 600.5625 L 974.832031 650.453125 L 951.523438 556.703125 L 928.214844 462.894531 Z M 1033.082031 506.808594 " fill-opacity="1" fill-rule="nonzero"/><path fill="#6ba7c4" d="M 760.03125 696.398438 L 759.394531 810.105469 L 605.027344 697.199219 L 682.796875 639.941406 L 760.621094 582.6875 Z M 760.03125 696.398438 " fill-opacity="1" fill-rule="nonzero"/><path fill="#547b97" d="M 470.558594 525.859375 L 367.824219 574.523438 L 385.320312 480.449219 L 402.761719 386.429688 L 488.050781 431.785156 L 573.34375 477.195312 Z M 470.558594 525.859375 " fill-opacity="1" fill-rule="nonzero"/></svg>