<svg xmlns="http://www.w3.org/2000/svg" xmlns:xlink="http://www.w3.org/1999/xlink" width="1920" zoomAndPan="magnify" viewBox="0 0 1440 809.999993" height="1080" preserveAspectRatio="xMidYMid meet" version="1.0"><defs><g/><clipPath id="af5355b6f6"><path d="M 1009 461 L 1048 461 L 1048 516.96875 L 1009 516.96875 Z M 1009 461 " clip-rule="nonzero"/></clipPath><clipPath id="6da83599da"><path d="M 1050 331 L 1096 331 L 1096 369 L 1050 369 Z M 1050 331 " clip-rule="nonzero"/></clipPath><clipPath id="91a357b70f"><path d="M 1059.804688 324.476562 L 1102.058594 346.820312 L 1086.613281 376.023438 L 1044.359375 353.679688 Z M 1059.804688 324.476562 " clip-rule="nonzero"/></clipPath><clipPath id="8187e02525"><path d="M 1080.929688 335.648438 C 1069.261719 329.476562 1056.347656 331.011719 1052.082031 339.078125 C 1047.816406 347.140625 1053.820312 358.683594 1065.488281 364.851562 C 1077.15625 371.023438 1090.070312 369.484375 1094.335938 361.421875 C 1098.601562 353.355469 1092.597656 341.816406 1080.929688 335.648438 " clip-rule="nonzero"/></clipPath><clipPath id="66cedf413c"><path d="M 1078 347 L 1109 347 L 1109 377 L 1078 377 Z M 1078 347 " clip-rule="nonzero"/></clipPath><clipPath id="a604253741"><path d="M 1089.527344 341.878906 L 1114.492188 365.488281 L 1098.175781 382.746094 L 1073.207031 359.136719 Z M 1089.527344 341.878906 " clip-rule="nonzero"/></clipPath><clipPath id="17847a1b9e"><path d="M 1102.007812 353.683594 C 1095.113281 347.164062 1085.871094 345.742188 1081.367188 350.507812 C 1076.859375 355.273438 1078.796875 364.421875 1085.691406 370.941406 C 1092.585938 377.460938 1101.828125 378.882812 1106.332031 374.117188 C 1110.839844 369.351562 1108.902344 360.203125 1102.007812 353.683594 " clip-rule="nonzero"/></clipPath><clipPath id="1f99dde8c5"><path d="M 1083 355 L 1123 355 L 1123 390 L 1083 390 Z M 1083 355 " clip-rule="nonzero"/></clipPath><clipPath id="6ee1970c22"><path d="M 1078.800781 370.5625 L 1096.5625 349.25 L 1131.316406 378.21875 L 1113.554688 399.53125 Z M 1078.800781 370.5625 " clip-rule="nonzero"/></clipPath><clipPath id="b3717f75cc"><path d="M 1122.4375 388.875 L 1101.359375 389.363281 L 1106.441406 383.265625 L 1083.882812 364.464844 L 1091.480469 355.351562 L 1114.039062 374.152344 L 1119.121094 368.050781 L 1122.4375 388.875 " clip-rule="nonzero"/></clipPath><clipPath id="f8ef687f8d"><path d="M 1076 353 L 1112 353 L 1112 391 L 1076 391 Z M 1076 353 " clip-rule="nonzero"/></clipPath><clipPath id="05fce138d6"><path d="M 1070.492188 367.355469 L 1090.746094 348.394531 L 1121.664062 381.425781 L 1101.410156 400.386719 Z M 1070.492188 367.355469 " clip-rule="nonzero"/></clipPath><clipPath id="1658983bbf"><path d="M 1111.539062 390.90625 L 1090.558594 388.796875 L 1096.355469 383.367188 L 1076.285156 361.929688 L 1084.949219 353.820312 L 1105.019531 375.261719 L 1110.8125 369.835938 L 1111.539062 390.90625 " clip-rule="nonzero"/></clipPath><clipPath id="23fb75862f"><path d="M 1062 352 L 1099 352 L 1099 390 L 1062 390 Z M 1062 352 " clip-rule="nonzero"/></clipPath><clipPath id="4fff85c364"><path d="M 1056.613281 367.535156 L 1077.25 346.894531 L 1109.246094 378.890625 L 1088.605469 399.527344 Z M 1056.613281 367.535156 " clip-rule="nonzero"/></clipPath><clipPath id="c54a4e945b"><path d="M 1098.925781 389.207031 L 1077.375 388.300781 L 1082.992188 382.6875 L 1062.226562 361.921875 L 1071.636719 352.507812 L 1092.402344 373.273438 L 1098.015625 367.660156 L 1098.925781 389.207031 " clip-rule="nonzero"/></clipPath><clipPath id="e75486d500"><path d="M 1094.226562 348 L 1102.84375 348 L 1102.84375 357 L 1094.226562 357 Z M 1094.226562 348 " clip-rule="nonzero"/></clipPath><clipPath id="92820190a0"><path d="M 1099.0625 354.523438 C 1094.300781 350.089844 1102.183594 351.242188 1102.675781 352.226562 C 1102.839844 352.71875 1102.183594 353.703125 1101.691406 353.867188 C 1100.867188 354.195312 1097.75 352.390625 1097.75 352.0625 C 1097.75 351.734375 1098.898438 351.40625 1099.390625 351.570312 C 1100.210938 352.0625 1101.359375 356.988281 1101.195312 356.988281 C 1101.03125 356.988281 1096.433594 349.433594 1096.925781 348.449219 C 1097.089844 347.957031 1098.242188 347.957031 1098.734375 348.285156 C 1099.71875 348.777344 1101.195312 353.210938 1101.03125 353.210938 C 1100.867188 353.210938 1097.585938 349.269531 1097.914062 348.777344 C 1098.078125 348.449219 1100.210938 348.777344 1100.867188 349.433594 C 1101.527344 350.253906 1101.527344 353.539062 1101.527344 353.539062 C 1101.527344 353.539062 1100.210938 350.417969 1100.539062 349.925781 C 1100.703125 349.597656 1102.019531 349.597656 1102.183594 349.761719 C 1102.347656 350.089844 1100.375 352.390625 1099.226562 352.390625 C 1097.914062 352.390625 1094.792969 349.105469 1094.957031 348.941406 C 1095.121094 348.777344 1098.734375 351.242188 1100.046875 351.074219 C 1100.867188 351.074219 1101.691406 349.597656 1102.183594 349.761719 C 1102.839844 350.089844 1102.511719 354.6875 1102.183594 354.851562 C 1101.691406 355.015625 1099.226562 349.433594 1099.390625 349.269531 C 1099.554688 349.269531 1102.347656 352.390625 1102.183594 353.046875 C 1102.019531 353.539062 1100.703125 354.03125 1100.046875 353.703125 C 1098.898438 353.210938 1096.597656 348.941406 1096.925781 348.449219 C 1097.089844 348.121094 1098.078125 348.285156 1098.570312 348.613281 C 1099.71875 349.433594 1101.527344 353.375 1101.527344 354.851562 C 1101.527344 355.675781 1101.03125 356.988281 1100.703125 356.988281 C 1100.046875 356.988281 1097.253906 352.71875 1097.75 352.0625 C 1098.078125 351.570312 1102.019531 352.390625 1102.019531 352.554688 C 1102.019531 352.71875 1099.226562 353.210938 1098.078125 352.882812 C 1097.089844 352.554688 1095.449219 350.910156 1095.449219 350.746094 C 1095.449219 350.582031 1099.882812 352.554688 1100.046875 353.375 C 1100.046875 353.867188 1099.0625 354.523438 1099.0625 354.523438 " clip-rule="nonzero"/></clipPath><clipPath id="1fc5e87e64"><path d="M 1108.582031 387.015625 L 1115.507812 387.015625 L 1115.507812 390.835938 L 1108.582031 390.835938 Z M 1108.582031 387.015625 " clip-rule="nonzero"/></clipPath><clipPath id="3f4fc639b1"><path d="M 1110.886719 387.039062 C 1114.664062 389.832031 1109.078125 390.324219 1108.914062 389.996094 C 1108.914062 389.667969 1112.035156 388.023438 1113.347656 387.859375 C 1114.171875 387.695312 1115.484375 387.859375 1115.484375 388.023438 C 1115.484375 388.351562 1111.871094 390.652344 1111.378906 390.324219 C 1111.214844 390.160156 1111.542969 388.847656 1111.542969 388.847656 C 1111.542969 388.847656 1111.707031 390.488281 1111.707031 390.488281 C 1111.707031 390.488281 1111.707031 388.847656 1111.707031 388.847656 C 1111.707031 388.847656 1111.378906 390.324219 1111.707031 390.488281 C 1112.199219 390.816406 1114.992188 389.667969 1114.992188 389.503906 C 1114.992188 389.339844 1109.40625 390.652344 1108.914062 389.996094 C 1108.585938 389.667969 1108.914062 388.847656 1109.242188 388.519531 C 1110.066406 388.023438 1114.828125 389.339844 1114.828125 389.339844 C 1114.828125 389.339844 1110.394531 389.175781 1110.066406 388.519531 C 1109.902344 388.1875 1110.886719 387.039062 1110.886719 387.039062 " clip-rule="nonzero"/></clipPath><clipPath id="998166cc61"><path d="M 1109 386.679688 L 1115 386.679688 L 1115 390 L 1109 390 Z M 1109 386.679688 " clip-rule="nonzero"/></clipPath><clipPath id="33e9cabcd2"><path d="M 1109.902344 386.710938 C 1119.097656 389.996094 1110.066406 389.339844 1109.40625 388.351562 C 1109.078125 387.859375 1109.902344 386.710938 1109.902344 386.710938 " clip-rule="nonzero"/></clipPath><clipPath id="bee79a8b8f"><path d="M 1106.609375 388.304688 L 1117 388.304688 L 1117 391 L 1106.609375 391 Z M 1106.609375 388.304688 " clip-rule="nonzero"/></clipPath><clipPath id="7df4a60571"><path d="M 1107.765625 388.351562 C 1122.382812 390.816406 1114.335938 391.144531 1111.542969 390.816406 C 1109.570312 390.652344 1106.945312 390.324219 1106.78125 389.667969 C 1106.617188 389.339844 1107.765625 388.351562 1107.765625 388.351562 " clip-rule="nonzero"/></clipPath><clipPath id="22550011ff"><path d="M 1114 388.640625 L 1117.480469 388.640625 L 1117.480469 390 L 1114 390 Z M 1114 388.640625 " clip-rule="nonzero"/></clipPath><clipPath id="f110a86765"><path d="M 1117.453125 389.175781 C 1114.5 391.144531 1114.007812 388.683594 1114.007812 388.683594 " clip-rule="nonzero"/></clipPath><clipPath id="653814bf6d"><path d="M 1115 388.800781 L 1119 388.800781 L 1119 391 L 1115 391 Z M 1115 388.800781 " clip-rule="nonzero"/></clipPath><clipPath id="084044ae53"><path d="M 1115.484375 388.847656 C 1123.039062 390.816406 1115.8125 391.308594 1115.15625 390.488281 C 1114.828125 390.160156 1115.484375 388.847656 1115.484375 388.847656 " clip-rule="nonzero"/></clipPath></defs><g fill="#07031a" fill-opacity="1"><g transform="translate(166.286071, 489.463972)"><g><path d="M 121.34375 -89.703125 C 131.46875 -87.535156 139.601562 -82.503906 145.75 -74.609375 C 151.894531 -66.722656 154.96875 -57.71875 154.96875 -47.59375 C 154.96875 -32.96875 149.859375 -21.378906 139.640625 -12.828125 C 129.429688 -4.273438 115.191406 0 96.921875 0 L 15.453125 0 L 15.453125 -174.90625 L 94.1875 -174.90625 C 111.957031 -174.90625 125.863281 -170.832031 135.90625 -162.6875 C 145.957031 -154.550781 150.984375 -143.507812 150.984375 -129.5625 C 150.984375 -119.257812 148.285156 -110.703125 142.890625 -103.890625 C 137.492188 -97.085938 130.3125 -92.359375 121.34375 -89.703125 Z M 58.046875 -104.140625 L 85.953125 -104.140625 C 92.929688 -104.140625 98.289062 -105.675781 102.03125 -108.75 C 105.769531 -111.820312 107.640625 -116.347656 107.640625 -122.328125 C 107.640625 -128.316406 105.769531 -132.882812 102.03125 -136.03125 C 98.289062 -139.1875 92.929688 -140.765625 85.953125 -140.765625 L 58.046875 -140.765625 Z M 89.453125 -34.390625 C 96.585938 -34.390625 102.109375 -36.003906 106.015625 -39.234375 C 109.921875 -42.472656 111.875 -47.164062 111.875 -53.3125 C 111.875 -59.457031 109.835938 -64.273438 105.765625 -67.765625 C 101.691406 -71.253906 96.085938 -73 88.953125 -73 L 58.046875 -73 L 58.046875 -34.390625 Z M 89.453125 -34.390625 "/></g></g></g><g fill="#07031a" fill-opacity="1"><g transform="translate(330.47128, 489.463972)"><g><path d="M 157.46875 -139.03125 L 70.265625 66.03125 L 24.421875 66.03125 L 56.3125 -4.734375 L -0.25 -139.03125 L 47.34375 -139.03125 L 79.484375 -52.078125 L 111.375 -139.03125 Z M 157.46875 -139.03125 "/></g></g></g><g fill="#07031a" fill-opacity="1"><g transform="translate(487.92963, 489.463972)"><g><path d="M 92.9375 -36.125 L 92.9375 0 L 71.265625 0 C 55.816406 0 43.769531 -3.773438 35.125 -11.328125 C 26.488281 -18.890625 22.171875 -31.226562 22.171875 -48.34375 L 22.171875 -103.65625 L 5.234375 -103.65625 L 5.234375 -139.03125 L 22.171875 -139.03125 L 22.171875 -172.921875 L 64.78125 -172.921875 L 64.78125 -139.03125 L 92.6875 -139.03125 L 92.6875 -103.65625 L 64.78125 -103.65625 L 64.78125 -47.84375 C 64.78125 -43.6875 65.773438 -40.691406 67.765625 -38.859375 C 69.765625 -37.035156 73.085938 -36.125 77.734375 -36.125 Z M 92.9375 -36.125 "/></g></g></g><g fill="#07031a" fill-opacity="1"><g transform="translate(589.081698, 489.463972)"><g><path d="M 146.5 -71.75 C 146.5 -67.769531 146.25 -63.617188 145.75 -59.296875 L 49.328125 -59.296875 C 49.992188 -50.660156 52.773438 -44.054688 57.671875 -39.484375 C 62.578125 -34.921875 68.601562 -32.640625 75.75 -32.640625 C 86.375 -32.640625 93.765625 -37.125 97.921875 -46.09375 L 143.265625 -46.09375 C 140.941406 -36.957031 136.75 -28.734375 130.6875 -21.421875 C 124.625 -14.117188 117.023438 -8.390625 107.890625 -4.234375 C 98.753906 -0.078125 88.535156 2 77.234375 2 C 63.617188 2 51.492188 -0.90625 40.859375 -6.71875 C 30.234375 -12.539062 21.925781 -20.847656 15.9375 -31.640625 C 9.957031 -42.441406 6.96875 -55.066406 6.96875 -69.515625 C 6.96875 -83.960938 9.914062 -96.582031 15.8125 -107.375 C 21.71875 -118.175781 29.984375 -126.484375 40.609375 -132.296875 C 51.242188 -138.109375 63.453125 -141.015625 77.234375 -141.015625 C 90.691406 -141.015625 102.648438 -138.191406 113.109375 -132.546875 C 123.578125 -126.898438 131.757812 -118.84375 137.65625 -108.375 C 143.550781 -97.914062 146.5 -85.707031 146.5 -71.75 Z M 102.90625 -82.96875 C 102.90625 -90.28125 100.410156 -96.09375 95.421875 -100.40625 C 90.441406 -104.726562 84.210938 -106.890625 76.734375 -106.890625 C 69.597656 -106.890625 63.578125 -104.8125 58.671875 -100.65625 C 53.773438 -96.507812 50.742188 -90.613281 49.578125 -82.96875 Z M 102.90625 -82.96875 "/></g></g></g><g fill="#07031a" fill-opacity="1"><g transform="translate(742.553747, 489.463972)"><g><path d="M 129.3125 -174.90625 L 129.3125 -140.765625 L 58.046875 -140.765625 L 58.046875 -103.890625 L 111.375 -103.890625 L 111.375 -70.765625 L 58.046875 -70.765625 L 58.046875 0 L 15.453125 0 L 15.453125 -174.90625 Z M 129.3125 -174.90625 "/></g></g></g><g fill="#07031a" fill-opacity="1"><g transform="translate(878.834956, 489.463972)"><g><path d="M 58.046875 -184.375 L 58.046875 0 L 15.453125 0 L 15.453125 -184.375 Z M 58.046875 -184.375 "/></g></g></g><g fill="#07031a" fill-opacity="1"><g transform="translate(952.347673, 489.463972)"><g/></g></g><g fill="#07031a" fill-opacity="1"><g transform="translate(1005.166, 489.463972)"><g/></g></g><g fill="#07031a" fill-opacity="1"><g transform="translate(1058.024357, 489.463972)"><g><path d="M 215.015625 -139.03125 L 177.40625 0 L 130.3125 0 L 108.390625 -90.1875 L 85.703125 0 L 38.875 0 L 1 -139.03125 L 43.609375 -139.03125 L 63.28125 -39.609375 L 86.703125 -139.03125 L 131.796875 -139.03125 L 155.46875 -40.109375 L 174.90625 -139.03125 Z M 215.015625 -139.03125 "/></g></g></g><path fill="#6ba7c4" d="M 1098.5625 437.539062 C 1098.054688 438.878906 1097.496094 440.195312 1096.890625 441.492188 C 1096.28125 442.789062 1095.628906 444.0625 1094.925781 445.308594 C 1094.222656 446.558594 1093.476562 447.78125 1092.683594 448.972656 C 1091.890625 450.164062 1091.050781 451.328125 1090.171875 452.457031 C 1089.292969 453.589844 1088.371094 454.683594 1087.40625 455.746094 C 1086.445312 456.808594 1085.445312 457.835938 1084.40625 458.824219 C 1083.367188 459.8125 1082.292969 460.757812 1081.183594 461.667969 C 1080.070312 462.574219 1078.929688 463.441406 1077.753906 464.265625 C 1076.582031 465.085938 1075.375 465.867188 1074.144531 466.597656 C 1072.910156 467.332031 1071.652344 468.019531 1070.367188 468.660156 C 1069.082031 469.300781 1067.777344 469.894531 1066.449219 470.4375 C 1065.121094 470.980469 1063.773438 471.472656 1062.40625 471.917969 C 1061.039062 472.359375 1059.660156 472.75 1058.265625 473.09375 C 1056.871094 473.433594 1055.464844 473.722656 1054.050781 473.957031 C 1052.632812 474.195312 1051.210938 474.378906 1049.777344 474.507812 C 1048.347656 474.636719 1046.914062 474.714844 1045.480469 474.738281 L 1046.03125 507.148438 C 1048.28125 507.113281 1050.523438 506.992188 1052.761719 506.789062 C 1055.003906 506.582031 1057.230469 506.296875 1059.449219 505.929688 C 1061.667969 505.558594 1063.867188 505.109375 1066.054688 504.578125 C 1068.238281 504.042969 1070.398438 503.433594 1072.539062 502.742188 C 1074.675781 502.046875 1076.785156 501.277344 1078.867188 500.429688 C 1080.949219 499.582031 1082.996094 498.65625 1085.007812 497.65625 C 1087.023438 496.65625 1088.996094 495.585938 1090.925781 494.4375 C 1092.859375 493.292969 1094.746094 492.078125 1096.589844 490.792969 C 1098.429688 489.503906 1100.222656 488.152344 1101.960938 486.734375 C 1103.703125 485.316406 1105.390625 483.835938 1107.019531 482.292969 C 1108.648438 480.75 1110.222656 479.148438 1111.730469 477.488281 C 1113.242188 475.828125 1114.691406 474.117188 1116.074219 472.351562 C 1117.457031 470.582031 1118.773438 468.769531 1120.019531 466.902344 C 1121.269531 465.039062 1122.445312 463.132812 1123.550781 461.179688 C 1124.65625 459.230469 1125.6875 457.238281 1126.644531 455.210938 C 1127.601562 453.183594 1128.484375 451.125 1129.289062 449.03125 Z M 1098.5625 437.539062 " fill-opacity="1" fill-rule="nonzero"/><path fill="#ef6843" d="M 1104.984375 350.699219 L 1083.3125 374.589844 C 1084.378906 375.550781 1085.40625 376.554688 1086.398438 377.59375 C 1087.390625 378.632812 1088.339844 379.707031 1089.25 380.816406 C 1090.164062 381.925781 1091.03125 383.070312 1091.855469 384.246094 C 1092.679688 385.417969 1093.460938 386.625 1094.195312 387.855469 C 1094.929688 389.089844 1095.617188 390.347656 1096.257812 391.632812 C 1096.898438 392.917969 1097.488281 394.222656 1098.03125 395.550781 C 1098.570312 396.878906 1099.0625 398.226562 1099.503906 399.589844 C 1099.945312 400.957031 1100.335938 402.335938 1100.671875 403.730469 C 1101.007812 405.125 1101.292969 406.527344 1101.527344 407.945312 C 1101.757812 409.359375 1101.9375 410.78125 1102.0625 412.210938 C 1102.1875 413.636719 1102.257812 415.070312 1102.277344 416.503906 C 1102.292969 417.9375 1102.257812 419.367188 1102.167969 420.800781 C 1102.078125 422.230469 1101.933594 423.65625 1101.738281 425.078125 C 1101.539062 426.5 1101.289062 427.910156 1100.988281 429.3125 C 1100.683594 430.714844 1100.332031 432.101562 1099.921875 433.476562 C 1099.515625 434.851562 1099.058594 436.210938 1098.550781 437.550781 L 1129.3125 449.03125 C 1130.089844 446.929688 1130.785156 444.800781 1131.402344 442.644531 C 1132.019531 440.492188 1132.554688 438.316406 1133.011719 436.125 C 1133.464844 433.929688 1133.839844 431.722656 1134.128906 429.5 C 1134.417969 427.277344 1134.625 425.050781 1134.75 422.8125 C 1134.875 420.574219 1134.914062 418.335938 1134.871094 416.097656 C 1134.832031 413.859375 1134.703125 411.621094 1134.496094 409.390625 C 1134.285156 407.160156 1133.992188 404.941406 1133.617188 402.734375 C 1133.246094 400.523438 1132.789062 398.332031 1132.25 396.15625 C 1131.710938 393.980469 1131.09375 391.828125 1130.394531 389.699219 C 1129.695312 387.570312 1128.917969 385.46875 1128.0625 383.398438 C 1127.207031 381.324219 1126.277344 379.289062 1125.269531 377.285156 C 1124.261719 375.28125 1123.183594 373.320312 1122.03125 371.398438 C 1120.875 369.472656 1119.652344 367.597656 1118.359375 365.761719 C 1117.066406 363.929688 1115.707031 362.148438 1114.28125 360.417969 C 1112.855469 358.683594 1111.367188 357.007812 1109.8125 355.386719 C 1108.261719 353.765625 1106.652344 352.203125 1104.984375 350.699219 Z M 1104.984375 350.699219 " fill-opacity="1" fill-rule="nonzero"/><path fill="#f18642" d="M 1044.535156 359.695312 C 1048.289062 359.6875 1052.007812 360.046875 1055.691406 360.765625 C 1059.378906 361.488281 1062.957031 362.554688 1066.429688 363.976562 C 1069.90625 365.394531 1073.207031 367.136719 1076.339844 369.199219 C 1079.472656 371.261719 1082.375 373.609375 1085.046875 376.238281 L 1107.71875 353.253906 C 1072.566406 318.226562 1016.015625 318.851562 980.863281 353.882812 L 1003.65625 376.605469 C 1006.332031 373.921875 1009.25 371.523438 1012.402344 369.417969 C 1015.558594 367.308594 1018.890625 365.527344 1022.398438 364.078125 C 1025.90625 362.625 1029.523438 361.53125 1033.246094 360.792969 C 1036.972656 360.054688 1040.734375 359.6875 1044.535156 359.695312 Z M 1044.535156 359.695312 " fill-opacity="1" fill-rule="nonzero"/><path fill="#f5b86f" d="M 986.800781 417.222656 C 986.796875 413.390625 987.175781 409.597656 987.933594 405.839844 C 988.695312 402.082031 989.820312 398.4375 991.3125 394.90625 C 992.804688 391.375 994.632812 388.023438 996.800781 384.859375 C 998.964844 381.691406 1001.425781 378.769531 1004.179688 376.09375 L 981.585938 353.003906 C 979.976562 354.570312 978.425781 356.191406 976.9375 357.871094 C 975.449219 359.550781 974.023438 361.28125 972.664062 363.066406 C 971.304688 364.851562 970.015625 366.683594 968.789062 368.566406 C 967.566406 370.445312 966.417969 372.371094 965.335938 374.335938 C 964.257812 376.300781 963.25 378.304688 962.320312 380.34375 C 961.390625 382.382812 960.539062 384.457031 959.761719 386.558594 C 958.984375 388.664062 958.289062 390.792969 957.671875 392.945312 C 957.054688 395.101562 956.519531 397.277344 956.0625 399.472656 C 955.609375 401.664062 955.234375 403.875 954.945312 406.097656 C 954.65625 408.320312 954.449219 410.546875 954.324219 412.785156 C 954.199219 415.023438 954.160156 417.261719 954.203125 419.503906 C 954.246094 421.742188 954.371094 423.980469 954.578125 426.210938 C 954.789062 428.441406 955.082031 430.664062 955.457031 432.871094 C 955.832031 435.082031 956.289062 437.273438 956.828125 439.449219 C 957.367188 441.625 957.984375 443.777344 958.683594 445.910156 C 959.382812 448.039062 960.160156 450.140625 961.015625 452.210938 L 991.320312 439.554688 C 988.300781 432.414062 986.792969 424.972656 986.800781 417.222656 Z M 986.800781 417.222656 " fill-opacity="1" fill-rule="nonzero"/><path fill="#547b97" d="M 1044.535156 474.753906 C 1043.121094 474.753906 1041.714844 474.699219 1040.308594 474.597656 C 1038.898438 474.492188 1037.5 474.339844 1036.101562 474.132812 C 1034.707031 473.925781 1033.320312 473.671875 1031.945312 473.363281 C 1030.566406 473.058594 1029.203125 472.699219 1027.851562 472.292969 C 1026.503906 471.886719 1025.167969 471.433594 1023.851562 470.929688 C 1022.535156 470.425781 1021.238281 469.875 1019.960938 469.273438 C 1018.683594 468.675781 1017.429688 468.03125 1016.203125 467.34375 C 1014.972656 466.652344 1013.769531 465.917969 1012.59375 465.140625 C 1011.417969 464.363281 1010.273438 463.542969 1009.160156 462.683594 C 1008.042969 461.824219 1006.960938 460.921875 1005.910156 459.980469 C 1004.863281 459.042969 1003.851562 458.066406 1002.871094 457.050781 C 1001.894531 456.035156 1000.957031 454.988281 1000.054688 453.90625 C 999.15625 452.824219 998.296875 451.710938 997.480469 450.5625 C 996.660156 449.417969 995.886719 448.246094 995.152344 447.042969 C 994.421875 445.839844 993.734375 444.613281 993.09375 443.363281 C 992.449219 442.109375 991.855469 440.835938 991.308594 439.542969 L 961.09375 452.1875 C 961.976562 454.246094 962.933594 456.273438 963.96875 458.265625 C 965 460.253906 966.105469 462.203125 967.285156 464.113281 C 968.460938 466.019531 969.710938 467.882812 971.027344 469.699219 C 972.34375 471.515625 973.726562 473.28125 975.175781 474.996094 C 976.625 476.707031 978.136719 478.367188 979.710938 479.96875 C 981.28125 481.570312 982.910156 483.113281 984.597656 484.59375 C 986.285156 486.074219 988.027344 487.492188 989.820312 488.84375 C 991.613281 490.195312 993.453125 491.480469 995.34375 492.695312 C 997.230469 493.914062 999.164062 495.058594 1001.136719 496.128906 C 1003.109375 497.203125 1005.121094 498.203125 1007.171875 499.125 C 1009.21875 500.050781 1011.300781 500.898438 1013.410156 501.667969 C 1015.523438 502.4375 1017.660156 503.128906 1019.824219 503.742188 C 1021.988281 504.355469 1024.171875 504.886719 1026.375 505.335938 C 1028.578125 505.785156 1030.792969 506.15625 1033.023438 506.441406 C 1035.253906 506.726562 1037.492188 506.929688 1039.738281 507.050781 C 1041.984375 507.171875 1044.230469 507.210938 1046.476562 507.164062 L 1045.796875 474.753906 Z M 1044.535156 474.753906 " fill-opacity="1" fill-rule="nonzero"/><path fill="#f5b86f" d="M 992.171875 365.046875 L 972.484375 345.214844 L 995.761719 341.617188 L 1019.023438 338.003906 L 1015.4375 361.449219 L 1011.863281 384.878906 Z M 992.171875 365.046875 " fill-opacity="1" fill-rule="nonzero"/><path fill="#f18642" d="M 1096.550781 364.300781 L 1116.453125 344.679688 L 1120.066406 367.875 L 1123.679688 391.058594 L 1100.164062 387.484375 L 1076.652344 383.921875 Z M 1096.550781 364.300781 " fill-opacity="1" fill-rule="nonzero"/><path fill="#ef6843" d="M 1114.734375 442.589844 L 1140.570312 453.351562 L 1120.472656 465.589844 L 1100.386719 477.828125 L 1094.648438 454.832031 L 1088.90625 431.820312 Z M 1114.734375 442.589844 " fill-opacity="1" fill-rule="nonzero"/><g clip-path="url(#af5355b6f6)"><path fill="#6ba7c4" d="M 1047.488281 489.097656 L 1047.332031 516.992188 L 1009.316406 489.296875 L 1028.46875 475.25 L 1047.632812 461.207031 Z M 1047.488281 489.097656 " fill-opacity="1" fill-rule="nonzero"/></g><path fill="#547b97" d="M 976.199219 447.265625 L 950.902344 459.203125 L 955.210938 436.125 L 959.503906 413.0625 L 980.507812 424.1875 L 1001.511719 435.328125 Z M 976.199219 447.265625 " fill-opacity="1" fill-rule="nonzero"/><g fill="#07031a" fill-opacity="1"><g transform="translate(1057.924513, 489.451507)"><g><path d="M 215.015625 -139.03125 L 177.40625 0 L 130.3125 0 L 108.390625 -90.1875 L 85.703125 0 L 38.875 0 L 1 -139.03125 L 43.609375 -139.03125 L 63.28125 -39.609375 L 86.703125 -139.03125 L 131.796875 -139.03125 L 155.46875 -40.109375 L 174.90625 -139.03125 Z M 215.015625 -139.03125 "/></g></g></g><g clip-path="url(#6da83599da)"><g clip-path="url(#91a357b70f)"><g clip-path="url(#8187e02525)"><path fill="#f18642" d="M 1059.804688 324.476562 L 1102.058594 346.820312 L 1086.613281 376.023438 L 1044.359375 353.679688 Z M 1059.804688 324.476562 " fill-opacity="1" fill-rule="nonzero"/></g></g></g><g clip-path="url(#66cedf413c)"><g clip-path="url(#a604253741)"><g clip-path="url(#17847a1b9e)"><path fill="#f18642" d="M 1089.527344 341.878906 L 1114.492188 365.488281 L 1098.175781 382.746094 L 1073.207031 359.136719 Z M 1089.527344 341.878906 " fill-opacity="1" fill-rule="nonzero"/></g></g></g><g clip-path="url(#1f99dde8c5)"><g clip-path="url(#6ee1970c22)"><g clip-path="url(#b3717f75cc)"><path fill="#f18642" d="M 1078.800781 370.5625 L 1096.5625 349.25 L 1131.316406 378.21875 L 1113.554688 399.53125 Z M 1078.800781 370.5625 " fill-opacity="1" fill-rule="nonzero"/></g></g></g><g clip-path="url(#f8ef687f8d)"><g clip-path="url(#05fce138d6)"><g clip-path="url(#1658983bbf)"><path fill="#f18642" d="M 1070.492188 367.355469 L 1090.746094 348.394531 L 1121.664062 381.425781 L 1101.410156 400.386719 Z M 1070.492188 367.355469 " fill-opacity="1" fill-rule="nonzero"/></g></g></g><g clip-path="url(#23fb75862f)"><g clip-path="url(#4fff85c364)"><g clip-path="url(#c54a4e945b)"><path fill="#f18642" d="M 1056.613281 367.535156 L 1077.25 346.894531 L 1109.246094 378.890625 L 1088.605469 399.527344 Z M 1056.613281 367.535156 " fill-opacity="1" fill-rule="nonzero"/></g></g></g><g clip-path="url(#e75486d500)"><g clip-path="url(#92820190a0)"><path fill="#f18642" d="M 1087.402344 341.714844 L 1109.242188 341.714844 L 1109.242188 363.554688 L 1087.402344 363.554688 Z M 1087.402344 341.714844 " fill-opacity="1" fill-rule="nonzero"/></g></g><g clip-path="url(#1fc5e87e64)"><g clip-path="url(#3f4fc639b1)"><path fill="#f18642" d="M 1102.347656 380.472656 L 1122.054688 380.472656 L 1122.054688 397.058594 L 1102.347656 397.058594 Z M 1102.347656 380.472656 " fill-opacity="1" fill-rule="nonzero"/></g></g><g clip-path="url(#998166cc61)"><g clip-path="url(#33e9cabcd2)"><path fill="#f18642" d="M 1102.839844 380.140625 L 1125.664062 380.140625 L 1125.664062 396.234375 L 1102.839844 396.234375 Z M 1102.839844 380.140625 " fill-opacity="1" fill-rule="nonzero"/></g></g><g clip-path="url(#bee79a8b8f)"><g clip-path="url(#7df4a60571)"><path fill="#f18642" d="M 1100.210938 381.785156 L 1128.949219 381.785156 L 1128.949219 397.386719 L 1100.210938 397.386719 Z M 1100.210938 381.785156 " fill-opacity="1" fill-rule="nonzero"/></g></g><g clip-path="url(#22550011ff)"><g clip-path="url(#f110a86765)"><path fill="#f18642" d="M 1107.4375 382.113281 L 1124.023438 382.113281 L 1124.023438 397.878906 L 1107.4375 397.878906 Z M 1107.4375 382.113281 " fill-opacity="1" fill-rule="nonzero"/></g></g><g clip-path="url(#653814bf6d)"><g clip-path="url(#084044ae53)"><path fill="#f18642" d="M 1108.585938 382.277344 L 1129.605469 382.277344 L 1129.605469 397.058594 L 1108.585938 397.058594 Z M 1108.585938 382.277344 " fill-opacity="1" fill-rule="nonzero"/></g></g></svg>