<svg xmlns="http://www.w3.org/2000/svg" xmlns:xlink="http://www.w3.org/1999/xlink" width="1920" zoomAndPan="magnify" viewBox="0 0 1440 809.999993" height="1080" preserveAspectRatio="xMidYMid meet" version="1.0"><defs><clipPath id="44f4fe9755"><path d="M 396 80.996094 L 1044 80.996094 L 1044 729 L 396 729 Z M 396 80.996094 " clip-rule="nonzero"/></clipPath><clipPath id="5c930ff9b1"><path d="M 720 80.996094 C 541.058594 80.996094 396 226.058594 396 405 C 396 583.941406 541.058594 729 720 729 C 898.941406 729 1044 583.941406 1044 405 C 1044 226.058594 898.941406 80.996094 720 80.996094 " clip-rule="nonzero"/></clipPath><clipPath id="1935ddd540"><path d="M 507 215 L 933 215 L 933 599.839844 L 507 599.839844 Z M 507 215 " clip-rule="nonzero"/></clipPath></defs><g clip-path="url(#44f4fe9755)"><g clip-path="url(#5c930ff9b1)"><path fill="#377475" d="M 396 80.996094 L 1044 80.996094 L 1044 729 L 396 729 Z M 396 80.996094 " fill-opacity="1" fill-rule="nonzero"/></g></g><g clip-path="url(#1935ddd540)"><path fill="#ffffff" d="M 639.957031 330.214844 C 640.097656 330.386719 640.246094 330.550781 640.402344 330.710938 L 715.105469 405.398438 C 716.246094 406.535156 717.703125 407.175781 719.203125 407.316406 C 719.421875 407.335938 719.644531 407.347656 719.867188 407.347656 C 719.941406 407.347656 720.015625 407.347656 720.089844 407.34375 C 721.777344 407.289062 723.390625 406.585938 724.578125 405.398438 L 799.28125 330.710938 C 799.4375 330.554688 799.585938 330.394531 799.722656 330.226562 L 812.867188 317.082031 C 836.054688 293.898438 836.054688 256.171875 812.867188 232.988281 C 789.675781 209.804688 751.945312 209.804688 728.75 232.988281 L 719.84375 241.894531 L 710.933594 232.988281 C 687.742188 209.804688 650.011719 209.804688 626.820312 232.988281 C 603.628906 256.171875 603.628906 293.898438 626.820312 317.082031 Z M 636.21875 242.382812 C 644.941406 233.664062 656.542969 228.859375 668.878906 228.859375 C 681.214844 228.859375 692.8125 233.664062 701.535156 242.382812 L 715.144531 255.988281 C 716.390625 257.234375 718.082031 257.933594 719.84375 257.933594 C 721.605469 257.933594 723.296875 257.234375 724.542969 255.988281 L 738.152344 242.382812 C 746.875 233.664062 758.472656 228.859375 770.808594 228.859375 C 783.144531 228.859375 794.746094 233.664062 803.46875 242.382812 C 821.476562 260.386719 821.476562 289.683594 803.46875 307.6875 L 789.859375 321.289062 C 789.703125 321.449219 789.554688 321.613281 789.414062 321.78125 L 719.84375 391.335938 L 650.277344 321.785156 C 650.136719 321.613281 649.988281 321.449219 649.828125 321.289062 L 636.222656 307.683594 C 618.210938 289.683594 618.210938 260.390625 636.21875 242.382812 Z M 930.675781 396.761719 C 918.699219 384.789062 900.675781 381 884.976562 386.886719 C 880.179688 385.082031 875.046875 384.128906 869.765625 384.128906 C 858.335938 384.128906 847.585938 388.539062 839.460938 396.558594 L 790.003906 438.441406 C 790.027344 437.910156 790.046875 437.378906 790.046875 436.847656 C 790.046875 433.175781 787.070312 430.199219 783.398438 430.199219 L 630.738281 430.199219 C 608.914062 430.199219 588.398438 438.699219 572.96875 454.125 L 509.011719 518.0625 C 506.417969 520.660156 506.417969 524.867188 509.011719 527.460938 C 510.308594 528.757812 512.011719 529.40625 513.710938 529.40625 C 515.414062 529.40625 517.113281 528.757812 518.414062 527.460938 L 582.367188 463.519531 C 595.289062 450.601562 612.46875 443.488281 630.738281 443.488281 L 775.960938 443.488281 C 772.960938 455.925781 761.742188 465.195312 748.394531 465.195312 L 667.113281 465.195312 C 663.441406 465.195312 660.46875 468.171875 660.46875 471.839844 C 660.46875 475.511719 663.441406 478.484375 667.113281 478.484375 L 748.394531 478.484375 C 760.167969 478.484375 770.808594 473.570312 778.390625 465.691406 L 848.253906 406.527344 C 848.394531 406.410156 848.527344 406.289062 848.65625 406.15625 C 858.679688 396.136719 874.121094 394.746094 885.648438 401.984375 L 779.867188 507.742188 C 770.035156 517.570312 756.960938 522.984375 743.058594 522.984375 L 638.800781 522.984375 C 626.664062 522.984375 615.257812 527.707031 606.675781 536.285156 L 554.476562 588.476562 C 551.878906 591.070312 551.878906 595.277344 554.476562 597.875 C 555.773438 599.171875 557.472656 599.820312 559.175781 599.820312 C 560.875 599.820312 562.578125 599.171875 563.875 597.875 L 616.078125 545.683594 C 622.148438 539.617188 630.214844 536.273438 638.800781 536.273438 L 773.460938 536.273438 C 790.914062 536.273438 807.328125 529.476562 819.667969 517.136719 L 930.675781 406.15625 C 933.269531 403.5625 933.269531 399.355469 930.675781 396.761719 Z M 810.269531 507.742188 C 802.945312 515.066406 793.820312 519.933594 783.894531 521.941406 C 785.753906 520.445312 787.554688 518.851562 789.265625 517.136719 L 900.273438 406.15625 C 902.648438 403.78125 902.84375 400.054688 900.867188 397.453125 C 906.199219 397.589844 911.464844 399.132812 916.039062 401.992188 Z M 810.269531 507.742188 " fill-opacity="1" fill-rule="nonzero"/></g></svg>