<svg xmlns="http://www.w3.org/2000/svg" xmlns:xlink="http://www.w3.org/1999/xlink" width="1920" zoomAndPan="magnify" viewBox="0 0 1440 809.999993" height="1080" preserveAspectRatio="xMidYMid meet" version="1.0"><defs><clipPath id="d4532dbaf2"><path d="M 239.09375 0 L 567.59375 0 L 567.59375 810 L 239.09375 810 Z M 239.09375 0 " clip-rule="nonzero"/></clipPath></defs><rect x="-144" width="1728" fill="#ffffff" y="-80.999999" height="971.999992" fill-opacity="1"/><rect x="-144" width="1728" fill="#fcffff" y="-80.999999" height="971.999992" fill-opacity="1"/><g clip-path="url(#d4532dbaf2)"><path stroke-linecap="butt" transform="matrix(0.704936, 0, 0, 0.704988, 239.093169, -311.363988)" fill="none" stroke-linejoin="miter" d="M 289.998505 13.997244 C 102.237558 321.870219 51.374091 634.098319 136.781937 789.043245 C 222.189784 943.98263 246.349792 1098.578481 209.256421 1252.84188 C 172.157509 1407.088657 126.513933 1561.302188 72.320153 1715.449228 C 18.126372 1869.607351 6.406552 2001.768214 47.999447 2002.00093 " stroke="#eaa900" stroke-width="45" stroke-opacity="0.54" stroke-miterlimit="4"/><path stroke-linecap="butt" transform="matrix(0.704936, 0, 0, 0.704988, 239.093169, -311.363988)" fill="none" stroke-linejoin="miter" d="M 289.998505 13.997244 C 102.237558 321.870219 51.374091 634.098319 136.781937 789.043245 C 222.189784 943.98263 246.349792 1098.578481 209.256421 1252.84188 C 172.157509 1407.088657 126.513933 1561.302188 72.320153 1715.449228 C 18.126372 1869.607351 6.406552 2001.768214 47.999447 2002.00093 " stroke="#f5cd65" stroke-width="45" stroke-opacity="1" stroke-miterlimit="4"/><path stroke-linecap="butt" transform="matrix(0.704936, 0, 0, 0.704988, 239.093169, -311.363988)" fill="none" stroke-linejoin="miter" d="M 334.356502 14.440514 C 146.590014 322.307948 95.732088 634.541589 181.139934 789.480974 C 266.547781 944.420359 290.702248 1099.021751 253.608877 1253.279609 C 216.515506 1407.531926 170.866389 1561.728835 116.672609 1715.892498 C 62.478828 1870.05062 50.759008 2002.211484 92.351903 2002.438659 " stroke="#f5cd65" stroke-width="45" stroke-opacity="1" stroke-miterlimit="4"/><path stroke-linecap="butt" transform="matrix(0.704936, 0, 0, 0.704988, 239.093169, -311.363988)" fill="none" stroke-linejoin="miter" d="M 374.353507 12.440259 C 186.59256 320.307693 135.729093 632.541334 221.136939 787.480719 C 306.544786 942.425645 330.704794 1097.021497 293.605882 1251.279355 C 256.512511 1405.531672 210.868936 1559.72858 156.675155 1713.892244 C 102.481375 1868.050366 90.761554 2000.211229 132.354449 2000.438405 " stroke="#f5cd65" stroke-width="45" stroke-opacity="1" stroke-miterlimit="4"/><path stroke-linecap="butt" transform="matrix(0.704936, 0, 0, 0.704988, 239.093169, -311.363988)" fill="none" stroke-linejoin="miter" d="M 412.355649 19.43838 C 224.589161 327.311355 173.731234 639.539455 259.139081 794.47884 C 344.546928 949.423766 368.701395 1104.019617 331.608024 1258.277475 C 294.514653 1412.529792 248.865536 1566.732242 194.671756 1720.890364 C 140.477975 1875.048486 128.763696 2007.20935 170.356591 2007.442066 " stroke="#f5cd65" stroke-width="45" stroke-opacity="1" stroke-miterlimit="4"/><path stroke-linecap="butt" transform="matrix(0.704936, 0, 0, 0.704988, 239.093169, -311.363988)" fill="none" stroke-linejoin="miter" d="M 446.35144 22.441532 C 258.590494 330.308966 207.732568 642.537066 293.140414 797.481992 C 378.548261 952.421377 402.702728 1107.022769 365.609357 1261.280627 C 328.510445 1415.527404 282.866869 1569.729853 228.673089 1723.887975 C 174.479308 1878.051639 162.759487 2010.212502 204.352383 2010.439678 " stroke="#f5cd65" stroke-width="45" stroke-opacity="1" stroke-miterlimit="4"/></g></svg>