<svg xmlns="http://www.w3.org/2000/svg" xmlns:xlink="http://www.w3.org/1999/xlink" width="1920" zoomAndPan="magnify" viewBox="0 0 1440 809.999993" height="1080" preserveAspectRatio="xMidYMid meet" version="1.0"><rect x="-144" width="1728" fill="#ffffff" y="-80.999999" height="971.999992" fill-opacity="1"/><rect x="-144" width="1728" fill="#89b6ca" y="-80.999999" height="971.999992" fill-opacity="1"/><path fill="#c7eeff" d="M 135.59375 357.152344 C 136.21875 357.570312 137.6875 357.992188 139.78125 358.410156 C 138.523438 357.992188 137.058594 357.570312 135.59375 357.152344 Z M 135.59375 357.152344 " fill-opacity="1" fill-rule="nonzero"/><path fill="#c7eeff" d="M 902.636719 362.8125 C 902.636719 362.8125 902.425781 362.601562 902.425781 362.601562 C 903.890625 363.859375 904.941406 364.699219 905.566406 365.117188 C 905.359375 364.910156 905.359375 364.910156 905.148438 364.699219 C 904.3125 364.28125 903.472656 363.652344 902.636719 362.8125 Z M 902.636719 362.8125 " fill-opacity="1" fill-rule="nonzero"/><path fill="#c7eeff" d="M 159.679688 369.941406 C 163.242188 373.503906 164.078125 374.132812 163.660156 373.714844 C 162.195312 372.457031 160.9375 371.40625 159.679688 369.941406 C 159.679688 370.148438 159.679688 370.148438 159.679688 369.941406 Z M 159.679688 369.941406 " fill-opacity="1" fill-rule="nonzero"/><path fill="#c7eeff" d="M 1609.355469 313.128906 C 1598.882812 306.632812 1588.199219 300.550781 1576.050781 298.246094 C 1572.070312 297.40625 1567.882812 296.777344 1563.902344 296.148438 C 1560.339844 295.730469 1557.828125 295.3125 1556.152344 294.890625 C 1554.476562 294.683594 1552.171875 294.472656 1549.238281 294.261719 C 1546.097656 294.054688 1542.746094 293.84375 1539.605469 293.632812 C 1519.496094 292.796875 1498.96875 295.101562 1479.488281 300.761719 C 1439.0625 312.921875 1403.664062 337.027344 1374.339844 366.796875 C 1347.109375 394.257812 1325.535156 426.539062 1295.582031 451.277344 C 1295.375 451.488281 1294.953125 451.695312 1294.746094 451.90625 C 1294.117188 452.324219 1293.488281 452.953125 1293.070312 453.375 C 1293.070312 453.375 1292.859375 453.375 1292.859375 453.582031 C 1292.441406 454.003906 1291.8125 454.421875 1291.394531 454.839844 C 1291.8125 454.421875 1292.023438 454.210938 1292.441406 454.003906 C 1289.089844 456.308594 1285.738281 458.824219 1282.386719 460.921875 C 1275.265625 465.53125 1267.933594 469.515625 1260.394531 473.289062 C 1260.183594 473.496094 1258.71875 474.335938 1257.460938 474.753906 C 1257.042969 474.964844 1256.625 474.964844 1256.203125 475.175781 C 1255.15625 475.59375 1254.109375 476.011719 1253.0625 476.640625 C 1253.902344 476.222656 1254.527344 475.804688 1255.367188 475.59375 C 1251.804688 476.851562 1248.246094 478.320312 1244.476562 479.367188 C 1235.257812 482.300781 1226.042969 484.609375 1216.40625 486.285156 C 1212.425781 486.914062 1195.25 488.382812 1210.542969 487.542969 C 1206.144531 487.753906 1201.535156 488.589844 1197.136719 489.011719 C 1188.757812 489.640625 1180.171875 490.058594 1171.792969 489.429688 C 1171.164062 489.429688 1170.746094 489.429688 1170.117188 489.21875 C 1170.535156 489.21875 1163.832031 488.589844 1161.109375 487.960938 C 1154.40625 486.496094 1147.914062 484.398438 1141.421875 482.09375 C 1138.695312 480.835938 1135.972656 479.578125 1133.460938 478.109375 C 1127.597656 474.964844 1121.941406 471.402344 1116.285156 467.417969 C 1115.65625 467 1115.027344 466.582031 1114.398438 465.953125 C 1112.722656 464.484375 1111.046875 463.226562 1109.371094 461.757812 C 1103.925781 457.148438 1098.691406 452.117188 1093.664062 446.875 C 1084.027344 437.023438 1074.8125 426.332031 1066.222656 415.640625 C 1062.242188 410.609375 1058.265625 405.578125 1054.285156 400.753906 C 1058.054688 405.578125 1054.492188 401.175781 1053.027344 399.078125 C 1052.820312 398.660156 1052.398438 398.238281 1052.191406 397.820312 C 1051.769531 397.191406 1051.144531 396.5625 1050.722656 395.722656 C 1051.144531 396.351562 1051.5625 396.773438 1051.769531 397.191406 C 1049.886719 394.886719 1048.210938 392.582031 1046.324219 390.273438 C 1027.054688 365.328125 1007.992188 339.753906 985.371094 317.53125 C 933.636719 267.011719 856.554688 230.324219 784.082031 255.898438 C 703.859375 283.992188 660.289062 360.925781 597.660156 413.125 C 596.824219 413.753906 595.777344 414.589844 594.9375 415.21875 C 591.167969 417.945312 587.605469 420.460938 583.628906 422.976562 C 576.085938 427.796875 568.335938 432.410156 560.378906 436.394531 C 556.816406 438.28125 552.835938 439.746094 549.277344 441.632812 C 548.230469 442.054688 547.179688 442.472656 546.132812 442.890625 C 537.335938 446.246094 528.539062 448.972656 519.324219 451.277344 C 510.105469 453.582031 500.679688 455.46875 491.253906 456.9375 C 490 457.148438 488.742188 457.355469 487.484375 457.355469 C 486.855469 457.566406 486.230469 457.566406 485.808594 457.566406 C 485.390625 457.566406 485.179688 457.777344 484.761719 457.777344 C 484.972656 457.777344 485.179688 457.566406 485.601562 457.566406 C 479.316406 458.195312 472.824219 458.824219 466.328125 459.242188 C 456.066406 459.871094 445.804688 459.871094 435.539062 459.035156 C 433.863281 458.824219 432.1875 458.824219 430.511719 458.613281 C 425.484375 456.519531 417.734375 456.519531 412.5 455.261719 C 403.074219 452.953125 393.648438 450.230469 384.429688 446.875 C 382.335938 446.035156 379.613281 444.359375 377.308594 444.148438 C 372.492188 442.054688 367.675781 439.539062 363.066406 437.023438 C 353.429688 431.992188 344.214844 426.332031 335.417969 420.25 C 331.648438 417.734375 327.875 415.011719 324.316406 412.285156 C 324.105469 412.285156 324.105469 412.074219 324.105469 412.074219 C 321.382812 409.769531 318.449219 407.464844 315.726562 405.15625 C 286.613281 380.632812 262.945312 350.652344 234.667969 325.078125 C 200.945312 294.472656 159.890625 276.445312 114.226562 274.347656 C 71.917969 272.460938 28.976562 280.636719 -8.933594 299.085938 C -39.097656 313.757812 -65.910156 335.980469 -87.0625 361.972656 C -90.625 366.375 -94.1875 370.988281 -97.535156 375.601562 C -98.792969 377.277344 -100.050781 378.953125 -101.308594 380.632812 C -101.726562 381.261719 -105.496094 387.128906 -102.355469 382.308594 C -108.011719 390.484375 -113.664062 398.660156 -118.691406 407.464844 C -128.328125 424.023438 -133.5625 437.023438 -140.6875 456.308594 C -146.96875 472.867188 -151.789062 489.21875 -155.347656 506.621094 C -157.441406 517.3125 -144.664062 522.132812 -138.382812 513.746094 C -127.28125 499.28125 -117.226562 484.398438 -106.542969 469.515625 C -101.308594 462.179688 -97.539062 457.148438 -92.929688 451.488281 C -89.996094 447.714844 -87.0625 443.730469 -84.132812 439.957031 C -82.875 438.28125 -81.617188 436.394531 -80.152344 434.714844 C -79.734375 434.296875 -79.523438 433.878906 -79.3125 433.457031 C -78.6875 432.621094 -78.058594 431.78125 -77.21875 430.941406 C -67.164062 418.363281 -56.273438 406.414062 -44.125 395.726562 C -41.609375 393.417969 -38.886719 391.113281 -36.164062 389.015625 C -35.535156 388.597656 -33.652344 386.921875 -33.023438 386.5 C -32.1875 385.871094 -31.347656 385.242188 -30.511719 384.613281 C -23.808594 379.792969 -16.894531 375.390625 -9.773438 371.40625 C -6.839844 369.730469 -3.699219 368.054688 -0.558594 366.585938 C 1.328125 365.746094 3.214844 364.910156 5.097656 363.859375 C 5.097656 363.859375 5.308594 363.859375 5.308594 363.652344 C 13.265625 360.714844 21.226562 357.992188 29.394531 355.683594 C 32.957031 354.636719 36.515625 353.796875 40.078125 353.167969 C 42.800781 352.539062 51.390625 352.539062 53.484375 350.863281 C 55.789062 350.652344 58.089844 350.445312 60.394531 350.234375 C 65.214844 349.816406 70.03125 349.394531 75.058594 349.394531 C 84.484375 348.976562 94.117188 349.1875 103.542969 349.816406 C 106.269531 350.023438 109.199219 350.234375 111.921875 350.445312 C 112.132812 350.445312 112.132812 350.445312 112.34375 350.445312 C 117.367188 351.492188 122.1875 352.332031 127.214844 353.796875 C 129.9375 354.636719 132.867188 356.105469 136.011719 357.152344 C 134.964844 356.523438 135.59375 356.105469 137.6875 357.152344 C 138.523438 357.570312 139.363281 357.992188 139.992188 358.199219 C 140.199219 358.199219 140.410156 358.199219 140.828125 358.410156 C 140.617188 358.410156 140.410156 358.410156 140.199219 358.410156 C 141.457031 359.039062 142.714844 359.667969 143.761719 360.296875 C 147.742188 362.394531 151.511719 364.699219 155.28125 367.003906 C 156.746094 368.054688 158.421875 369.101562 159.890625 370.148438 C 159.679688 369.941406 159.46875 369.730469 159.46875 369.519531 C 159.679688 369.730469 159.890625 369.941406 160.097656 370.148438 C 161.566406 371.199219 163.449219 373.085938 163.871094 373.714844 C 168.476562 377.695312 173.296875 381.46875 177.695312 385.664062 C 184.394531 391.953125 190.679688 398.660156 196.964844 405.367188 C 209.949219 419.203125 222.308594 433.457031 235.714844 446.875 C 270.066406 481.253906 309.445312 509.34375 354.476562 528.003906 C 396.160156 545.402344 441.824219 550.640625 486.648438 545.402344 C 529.796875 540.582031 570.640625 530.726562 609.390625 510.183594 C 677.046875 474.335938 719.777344 410.1875 775.914062 360.714844 C 774.863281 361.765625 782.613281 355.476562 784.917969 353.796875 C 788.480469 351.28125 792.25 348.976562 796.019531 346.878906 C 799.371094 344.992188 802.722656 343.316406 806.074219 341.847656 C 808.585938 341.011719 811.101562 340.171875 813.613281 339.332031 C 817.386719 338.285156 821.15625 337.445312 825.136719 336.609375 C 827.230469 336.398438 829.324219 336.398438 831.417969 336.1875 C 835.398438 336.1875 839.378906 336.398438 843.359375 336.609375 C 845.453125 337.027344 847.339844 337.238281 849.433594 337.867188 C 856.136719 339.332031 862.628906 341.21875 869.121094 343.527344 C 870.796875 344.15625 873.519531 345.203125 874.988281 346.042969 C 876.664062 346.878906 878.339844 347.507812 879.804688 348.347656 C 885.460938 351.28125 891.113281 354.636719 896.5625 358.199219 C 898.863281 359.667969 900.960938 361.34375 903.265625 362.8125 C 902.425781 362.183594 901.589844 361.34375 900.539062 360.507812 C 901.589844 361.34375 902.425781 362.183594 903.472656 363.023438 C 903.683594 363.023438 903.683594 363.230469 903.890625 363.230469 C 905.988281 364.699219 909.339844 367.632812 906.40625 365.328125 C 927.5625 382.9375 945.367188 404.109375 962.332031 425.703125 C 964.21875 428.007812 965.894531 430.3125 967.777344 432.621094 C 968.195312 433.039062 968.617188 433.667969 968.824219 434.085938 C 975.109375 442.472656 981.601562 450.648438 988.09375 459.035156 C 996.472656 469.933594 1005.0625 480.835938 1014.070312 491.316406 C 1033.339844 513.746094 1055.121094 534.292969 1080.046875 550.011719 C 1108.953125 568.25 1142.675781 577.894531 1176.820312 578.734375 C 1219.128906 579.992188 1261.859375 569.507812 1299.980469 551.898438 C 1333.914062 535.96875 1363.65625 510.601562 1388.375 482.722656 C 1394.449219 475.804688 1400.3125 468.675781 1406.179688 461.550781 C 1409.53125 457.355469 1412.882812 452.953125 1416.023438 448.761719 C 1416.652344 447.921875 1420.421875 443.941406 1420.839844 442.683594 C 1422.515625 440.585938 1424.191406 438.488281 1426.078125 436.394531 C 1432.152344 429.265625 1438.433594 422.347656 1444.929688 415.847656 C 1448.28125 412.496094 1451.839844 409.140625 1455.609375 405.785156 C 1456.867188 404.738281 1457.914062 403.691406 1459.171875 402.640625 C 1461.683594 400.546875 1470.484375 394.886719 1460.007812 401.804688 C 1467.132812 397.402344 1473.625 392.160156 1480.957031 387.96875 C 1484.726562 385.664062 1488.707031 383.566406 1492.683594 381.679688 C 1493.734375 381.261719 1494.78125 380.632812 1495.828125 380.210938 C 1496.246094 380.003906 1496.875 379.792969 1497.292969 379.582031 C 1505.042969 376.648438 1512.792969 374.550781 1520.960938 372.664062 C 1525.359375 371.617188 1529.757812 370.570312 1534.367188 369.730469 C 1535.414062 369.519531 1536.671875 369.3125 1537.929688 369.3125 C 1538.558594 369.101562 1539.394531 368.890625 1540.234375 368.890625 C 1540.441406 368.890625 1540.859375 368.683594 1541.070312 368.683594 C 1540.859375 368.683594 1540.652344 368.890625 1540.652344 368.890625 C 1549.660156 368.054688 1558.664062 367.632812 1567.671875 367.632812 C 1580.03125 367.632812 1591.761719 364.910156 1603.910156 363.230469 C 1614.382812 361.765625 1622.132812 350.023438 1623.386719 340.589844 C 1623.808594 329.269531 1618.78125 318.789062 1609.355469 313.128906 Z M 1609.355469 313.128906 " fill-opacity="1" fill-rule="nonzero"/><path fill="#c7eeff" d="M 1053.238281 400.335938 C 1053.445312 400.546875 1053.65625 400.753906 1053.65625 400.964844 C 1053.027344 400.125 1052.191406 398.867188 1050.933594 397.402344 C 1051.144531 397.609375 1051.144531 397.820312 1051.351562 398.03125 C 1052.191406 398.867188 1052.609375 399.707031 1053.238281 400.335938 Z M 1053.238281 400.335938 " fill-opacity="1" fill-rule="nonzero"/><path fill="#c7eeff" d="M 1294.535156 452.117188 C 1296.839844 450.019531 1298.515625 448.132812 1292.023438 454.210938 C 1292.230469 454.003906 1292.441406 454.003906 1292.652344 453.792969 C 1293.277344 453.164062 1293.90625 452.746094 1294.535156 452.117188 Z M 1294.535156 452.117188 " fill-opacity="1" fill-rule="nonzero"/><path fill="#c7eeff" d="M 1258.925781 473.917969 C 1259.347656 473.707031 1259.765625 473.496094 1260.183594 473.289062 C 1260.394531 473.078125 1259.136719 473.496094 1255.15625 475.59375 C 1255.367188 475.382812 1255.785156 475.382812 1255.996094 475.175781 C 1256.832031 474.753906 1257.878906 474.335938 1258.925781 473.917969 Z M 1258.925781 473.917969 " fill-opacity="1" fill-rule="nonzero"/><path fill="#c7eeff" d="M 487.902344 457.355469 C 491.464844 456.726562 495.863281 455.261719 485.808594 457.566406 C 485.808594 457.566406 486.019531 457.566406 486.019531 457.566406 C 486.855469 457.566406 487.277344 457.355469 487.902344 457.355469 Z M 487.902344 457.355469 " fill-opacity="1" fill-rule="nonzero"/></svg>