<svg xmlns="http://www.w3.org/2000/svg" xmlns:xlink="http://www.w3.org/1999/xlink" width="1920" zoomAndPan="magnify" viewBox="0 0 1440 809.999993" height="1080" preserveAspectRatio="xMidYMid meet" version="1.0"><defs><clipPath id="ed43d89b1d"><path d="M 374.28125 37.5625 L 1065.71875 37.5625 L 1065.71875 729 L 374.28125 729 Z M 374.28125 37.5625 " clip-rule="nonzero"/></clipPath><clipPath id="966267b08a"><path d="M 720 37.5625 C 529.066406 37.5625 374.28125 192.34375 374.28125 383.28125 C 374.28125 574.214844 529.066406 729 720 729 C 910.933594 729 1065.71875 574.214844 1065.71875 383.28125 C 1065.71875 192.34375 910.933594 37.5625 720 37.5625 " clip-rule="nonzero"/></clipPath><clipPath id="6fa2ae50fe"><path d="M 507.042969 186 L 917 186 L 917 595.535156 L 507.042969 595.535156 Z M 507.042969 186 " clip-rule="nonzero"/></clipPath><clipPath id="9c0847f14a"><path d="M 700 171 L 933.859375 171 L 933.859375 403 L 700 403 Z M 700 171 " clip-rule="nonzero"/></clipPath></defs><g clip-path="url(#ed43d89b1d)"><g clip-path="url(#966267b08a)"><path fill="#377475" d="M 374.28125 37.5625 L 1065.71875 37.5625 L 1065.71875 729 L 374.28125 729 Z M 374.28125 37.5625 " fill-opacity="1" fill-rule="nonzero"/></g></g><path fill="#ffffff" d="M 711.988281 331.996094 C 718.339844 331.996094 723.496094 326.855469 723.496094 320.523438 C 723.496094 314.1875 718.339844 309.046875 711.988281 309.046875 C 666.835938 309.046875 630.109375 345.671875 630.109375 390.710938 C 630.109375 435.75 666.835938 472.378906 711.988281 472.378906 C 757.140625 472.378906 793.863281 435.75 793.863281 390.710938 C 793.863281 384.375 788.707031 379.234375 782.355469 379.234375 C 776.007812 379.234375 770.851562 384.375 770.851562 390.710938 C 770.851562 423.082031 744.441406 449.425781 711.988281 449.425781 C 679.535156 449.425781 653.125 423.082031 653.125 390.710938 C 653.125 358.339844 679.535156 331.996094 711.988281 331.996094 " fill-opacity="1" fill-rule="nonzero"/><path fill="#ffffff" d="M 711.988281 250.164062 C 634.28125 250.164062 571.078125 313.214844 571.078125 390.710938 C 571.078125 468.21875 634.28125 531.273438 711.988281 531.273438 C 789.691406 531.273438 852.898438 468.21875 852.898438 390.710938 C 852.898438 384.375 847.742188 379.234375 841.394531 379.234375 C 835.042969 379.234375 829.886719 384.375 829.886719 390.710938 C 829.886719 455.5625 776.992188 508.320312 711.988281 508.320312 C 646.980469 508.320312 594.089844 455.5625 594.089844 390.710938 C 594.089844 325.875 646.980469 273.117188 711.988281 273.117188 C 718.339844 273.117188 723.496094 267.984375 723.496094 261.644531 C 723.496094 255.300781 718.339844 250.164062 711.988281 250.164062 " fill-opacity="1" fill-rule="nonzero"/><g clip-path="url(#6fa2ae50fe)"><path fill="#ffffff" d="M 905.484375 379.234375 C 899.136719 379.234375 893.980469 384.375 893.980469 390.710938 C 893.980469 490.804688 812.339844 572.25 711.988281 572.25 C 611.636719 572.25 530 490.804688 530 390.710938 C 530 290.625 611.636719 209.191406 711.988281 209.191406 C 718.339844 209.191406 723.496094 204.054688 723.496094 197.714844 C 723.496094 191.375 718.339844 186.238281 711.988281 186.238281 C 598.949219 186.238281 506.988281 277.96875 506.988281 390.710938 C 506.988281 503.476562 598.949219 595.199219 711.988281 595.199219 C 825.027344 595.199219 916.992188 503.476562 916.992188 390.710938 C 916.992188 384.375 911.835938 379.234375 905.484375 379.234375 " fill-opacity="1" fill-rule="nonzero"/></g><g clip-path="url(#9c0847f14a)"><path fill="#ffffff" d="M 861.636719 291.089844 L 835.898438 284.949219 L 873.171875 247.769531 L 898.910156 253.90625 Z M 813.460938 243.054688 L 850.75 205.859375 L 856.59375 230.25 L 819.3125 267.4375 Z M 932.671875 244.382812 C 931.546875 240.390625 928.328125 237.308594 924.269531 236.339844 L 879.144531 225.585938 L 868.367188 180.5625 C 867.398438 176.519531 864.304688 173.316406 860.300781 172.183594 C 856.257812 171.09375 851.984375 172.191406 849.039062 175.109375 L 792.644531 231.351562 C 789.804688 234.175781 788.65625 238.261719 789.578125 242.140625 L 800.210938 286.492188 L 703.851562 382.597656 C 699.359375 387.082031 699.359375 394.339844 703.851562 398.828125 C 706.101562 401.070312 709.039062 402.191406 711.988281 402.191406 C 714.941406 402.191406 717.875 401.070312 720.121094 398.828125 L 815.503906 303.703125 L 862.550781 314.917969 C 863.433594 315.125 864.335938 315.222656 865.222656 315.222656 C 868.242188 315.222656 871.175781 314.050781 873.351562 311.859375 L 929.730469 255.625 C 932.683594 252.6875 933.808594 248.386719 932.671875 244.382812 " fill-opacity="1" fill-rule="nonzero"/></g></svg>