<svg xmlns="http://www.w3.org/2000/svg" xmlns:xlink="http://www.w3.org/1999/xlink" width="1920" zoomAndPan="magnify" viewBox="0 0 1440 809.999993" height="1080" preserveAspectRatio="xMidYMid meet" version="1.0"><defs><clipPath id="952c0411b1"><path d="M 363.128906 48.128906 L 1076.871094 48.128906 L 1076.871094 761.871094 L 363.128906 761.871094 Z M 363.128906 48.128906 " clip-rule="nonzero"/></clipPath><clipPath id="5718eb6d46"><path d="M 720 48.128906 C 522.90625 48.128906 363.128906 207.90625 363.128906 405 C 363.128906 602.09375 522.90625 761.871094 720 761.871094 C 917.09375 761.871094 1076.871094 602.09375 1076.871094 405 C 1076.871094 207.90625 917.09375 48.128906 720 48.128906 " clip-rule="nonzero"/></clipPath></defs><g clip-path="url(#952c0411b1)"><g clip-path="url(#5718eb6d46)"><path fill="#377475" d="M 363.128906 48.128906 L 1076.871094 48.128906 L 1076.871094 761.871094 L 363.128906 761.871094 Z M 363.128906 48.128906 " fill-opacity="1" fill-rule="nonzero"/></g></g><path fill="#ffffff" d="M 719.433594 261.292969 C 621.53125 261.292969 531.429688 305.949219 472.242188 383.789062 C 463.007812 395.914062 463.007812 412.847656 472.230469 424.953125 C 531.429688 502.8125 621.53125 547.46875 719.433594 547.46875 C 817.332031 547.46875 907.433594 502.8125 966.625 424.96875 C 975.855469 412.847656 975.855469 395.929688 966.632812 383.808594 C 907.433594 305.949219 817.332031 261.292969 719.433594 261.292969 Z M 939.667969 404.429688 C 886.929688 473.789062 806.652344 513.570312 719.433594 513.570312 C 632.210938 513.570312 551.933594 473.789062 499.195312 404.332031 C 551.933594 334.972656 632.210938 295.191406 719.433594 295.191406 C 806.652344 295.191406 886.929688 334.972656 939.667969 404.332031 C 939.667969 404.339844 939.667969 404.421875 939.667969 404.429688 Z M 939.667969 404.429688 " fill-opacity="1" fill-rule="nonzero"/><path fill="#ffffff" d="M 719.433594 305.164062 C 664.75 305.164062 620.265625 349.671875 620.265625 404.378906 C 620.265625 459.089844 664.75 503.597656 719.433594 503.597656 C 774.113281 503.597656 818.597656 459.089844 818.597656 404.378906 C 818.597656 349.671875 774.113281 305.164062 719.433594 305.164062 Z M 719.433594 469.699219 C 683.433594 469.699219 654.144531 440.398438 654.144531 404.378906 C 654.144531 368.363281 683.433594 339.0625 719.433594 339.0625 C 755.429688 339.0625 784.71875 368.363281 784.71875 404.378906 C 784.71875 440.398438 755.429688 469.699219 719.433594 469.699219 Z M 719.433594 469.699219 " fill-opacity="1" fill-rule="nonzero"/></svg>