<svg width="27" height="26" viewBox="0 0 27 26" fill="none" xmlns="http://www.w3.org/2000/svg">
<path d="M21.4475 15.105L17.4475 13.105C17.2901 13.0265 17.1147 12.991 16.9391 13.002C16.7636 13.0129 16.594 13.07 16.4475 13.1675L14.6113 14.3925C13.7683 13.9291 13.0747 13.2354 12.6113 12.3925L13.8363 10.5562C13.9337 10.4098 13.9908 10.2402 14.0018 10.0646C14.0128 9.88907 13.9772 9.7137 13.8988 9.55625L11.8988 5.55625C11.8159 5.38884 11.6877 5.248 11.5289 5.14968C11.3701 5.05137 11.1868 4.99952 11 5C9.67395 5 8.40218 5.52678 7.4645 6.46447C6.52681 7.40215 6.00003 8.67392 6.00003 10C6.00334 12.9164 7.16333 15.7123 9.22551 17.7745C11.2877 19.8367 14.0837 20.9967 17 21C17.6566 21 18.3068 20.8707 18.9134 20.6194C19.5201 20.3681 20.0713 19.9998 20.5356 19.5355C20.9999 19.0712 21.3682 18.52 21.6194 17.9134C21.8707 17.3068 22 16.6566 22 16C22.0002 15.8142 21.9485 15.6321 21.851 15.474C21.7534 15.3159 21.6137 15.1881 21.4475 15.105ZM17 19C14.6139 18.9974 12.3262 18.0483 10.639 16.361C8.95174 14.6738 8.00268 12.3861 8.00003 10C7.99984 9.3064 8.23998 8.63416 8.67961 8.09768C9.11923 7.5612 9.73117 7.19362 10.4113 7.0575L11.8463 9.9325L10.625 11.75C10.5338 11.8869 10.4777 12.0442 10.4618 12.2079C10.4459 12.3717 10.4706 12.5368 10.5338 12.6888C11.2493 14.3892 12.6021 15.742 14.3025 16.4575C14.4549 16.5235 14.6213 16.5505 14.7867 16.5361C14.9521 16.5217 15.1114 16.4663 15.25 16.375L17.0763 15.1575L19.9513 16.5925C19.8141 17.2734 19.4449 17.8856 18.9067 18.3247C18.3685 18.7637 17.6946 19.0024 17 19ZM14 3.09594e-07C11.7556 -0.000489452 9.5493 0.58011 7.59585 1.68529C5.64239 2.79046 4.00834 4.38256 2.85274 6.30662C1.69715 8.23069 1.05938 10.4212 1.00151 12.6648C0.943648 14.9085 1.46765 17.1289 2.52253 19.11L1.10378 23.3662C0.986261 23.7186 0.969206 24.0968 1.05453 24.4583C1.13985 24.8199 1.32417 25.1505 1.58684 25.4132C1.84951 25.6759 2.18015 25.8602 2.54169 25.9455C2.90323 26.0308 3.28139 26.0138 3.63378 25.8962L7.89003 24.4775C9.63349 25.4048 11.5653 25.9228 13.5388 25.992C15.5123 26.0613 17.4757 25.68 19.2799 24.8772C21.084 24.0743 22.6816 22.871 23.9513 21.3586C25.221 19.8462 26.1294 18.0644 26.6077 16.1484C27.0859 14.2325 27.1214 12.2328 26.7114 10.301C26.3015 8.36934 25.4568 6.55642 24.2416 4.9999C23.0263 3.44337 21.4725 2.18415 19.6979 1.31782C17.9234 0.451486 15.9748 0.000810288 14 3.09594e-07ZM14 24C12.0663 24.0013 10.1664 23.4921 8.49253 22.5238C8.36997 22.4527 8.23372 22.4085 8.09278 22.394C7.95185 22.3796 7.80945 22.3953 7.67503 22.44L3.00003 24L4.55878 19.325C4.60371 19.1907 4.61959 19.0483 4.60537 18.9074C4.59115 18.7665 4.54715 18.6301 4.47628 18.5075C3.26374 16.4111 2.77692 13.9732 3.09132 11.572C3.40572 9.17068 4.50377 6.94027 6.21514 5.22674C7.92651 3.51321 10.1555 2.41234 12.5564 2.0949C14.9573 1.77747 17.3958 2.26122 19.4937 3.47111C21.5916 4.68099 23.2316 6.54939 24.1592 8.78644C25.0869 11.0235 25.2504 13.5042 24.6243 15.8436C23.9983 18.1831 22.6177 20.2505 20.6967 21.7253C18.7758 23.2 16.4218 23.9996 14 24Z" fill="white"/>
</svg>
